<svg width="148" height="57" viewBox="0 0 148 57" fill="none" xmlns="http://www.w3.org/2000/svg">
<path d="M54.1642 1.98935C52.7677 2.65845 52.1567 3.2984 51.5457 4.75324C50.5858 7.08072 51.4295 9.67004 53.6116 10.9501C54.7171 11.6192 55.1825 11.7065 56.6663 11.5901C59.4883 11.3865 61.0304 9.8446 61.2339 7.0224C61.3212 5.62607 61.2339 5.07322 60.7394 4.17123C59.4302 1.87291 56.4917 0.883639 54.1642 1.98935Z" fill="#202020"/>
<path d="M1.94238 16.4198C1.94238 25.6714 2.05882 31.0537 2.26236 32.072C3.01893 35.6797 5.5791 39.0835 8.83753 40.8292C12.2416 42.633 17.8856 43.3021 21.9587 42.342C30.9486 40.2182 35.3709 31.4029 31.4723 23.373C29.9304 20.2019 26.701 17.5834 22.8897 16.3325C19.8931 15.3724 14.7436 15.4305 11.8633 16.4487L10.6705 16.8562L10.6123 9.67003L10.5251 2.48388L6.2482 2.39659L1.94238 2.30931V16.4198ZM18.8165 23.0239C20.7368 23.4603 22.1624 24.5658 23.0353 26.2823C25.2171 30.6465 22.3078 35.5051 17.5075 35.5051C14.8017 35.5051 12.9107 34.4286 11.776 32.1884C10.8742 30.4138 11.1069 27.2424 12.2705 25.5843C13.4635 23.8676 14.598 23.2566 17.3619 22.7331C17.4492 22.7331 18.0893 22.8493 18.8165 23.0239Z" fill="#202020"/>
<path d="M37.2896 2.6874C37.2023 2.89112 37.1732 11.8227 37.2023 22.5583L37.2896 42.051L41.5954 42.1382L45.8721 42.2255V22.2673V2.33827H41.6536C38.5406 2.33827 37.3769 2.42555 37.2896 2.6874Z" fill="#202020"/>
<path d="M74.8223 15.7213C72.0292 16.0994 69.789 17.0887 68.2763 18.6014C66.7925 20.0852 66.2398 21.5109 66.2398 23.8384C66.2398 27.446 68.2763 29.5989 73.6876 31.7226C77.1789 33.1192 78.0226 34.2538 76.7425 35.8249C76.248 36.4359 75.9278 36.5232 74.3277 36.494C72.4948 36.494 71.1856 35.9995 68.6835 34.3411L67.7817 33.7593L66.1234 36.494C65.2214 38.007 64.4941 39.3452 64.4941 39.4906C64.4941 39.8689 66.7925 41.1781 68.7127 41.9054C72.1165 43.1856 78.3136 43.0111 81.7466 41.5562C85.616 39.898 87.4489 34.894 85.616 30.9954C84.5396 28.6388 82.7357 27.3878 78.1971 25.8749C76.8589 25.4093 75.4333 24.8275 75.055 24.5948C74.2405 24.0419 74.1532 22.7037 74.9096 22.0346C75.7243 21.278 78.75 21.3945 81.1648 22.2382L83.1431 22.9364L84.4523 20.289C86.0232 17.176 86.0524 17.2632 82.5903 16.3612C79.8264 15.634 77.1206 15.4011 74.8223 15.7213Z" fill="#202020"/>
<path d="M99.5514 15.7211C95.9439 16.2157 93.2672 17.6995 91.8999 20.0561C91.2308 21.2197 91.1143 21.7143 91.1143 23.7799C91.1143 25.9328 91.2016 26.253 91.9872 27.4166C93.1218 29.0169 95.3037 30.4715 98.3586 31.6935C101.181 32.7698 102.024 33.4681 102.024 34.6028C102.024 35.8829 101.093 36.523 99.1442 36.523C97.5149 36.523 95.5366 35.7956 93.4418 34.3701L92.5398 33.7881L90.8816 36.5811C88.9614 39.7523 88.9614 39.7233 91.6089 41.0615C94.0236 42.2835 96.2349 42.778 99.3479 42.778C104.585 42.778 108.338 41.3234 109.996 38.6178C110.694 37.4539 110.869 36.843 110.985 34.8938C111.276 30.0932 109.327 27.9403 102.635 25.7584C99.9878 24.8856 99.115 24.2455 99.115 23.1691C99.115 21.4524 102.315 21.016 105.894 22.238L107.872 22.9073L109.181 20.3179C109.909 18.8923 110.403 17.6122 110.316 17.4668C110.054 17.0304 106.621 16.0119 104.352 15.7211C101.908 15.4011 101.966 15.4011 99.5514 15.7211Z" fill="#202020"/>
<path d="M51.7515 29.1625L51.8388 42.051L56.1446 42.1382L60.4214 42.2255V29.2497V16.3031H56.0573H51.6934L51.7515 29.1625Z" fill="#202020"/>
<path d="M119.22 27.1258C122.566 33.09 125.301 38.0941 125.301 38.2687C125.301 38.4141 123.352 42.2835 120.966 46.8511L116.631 55.1428L121.46 55.2301C124.108 55.2593 126.377 55.2009 126.523 55.0555C126.668 54.9101 131.265 46.182 136.764 35.621L146.772 16.4485L142.088 16.3613C139.498 16.3321 137.258 16.3321 137.084 16.4194C136.909 16.4775 135.425 19.4741 133.738 23.1108C132.079 26.7186 130.625 29.686 130.537 29.686C130.421 29.686 128.705 26.6894 126.726 22.9946L123.119 16.3029H118.115H113.14L119.22 27.1258Z" fill="#202020"/>
</svg>
