<svg width="381" height="244" viewBox="0 0 381 244" fill="none" xmlns="http://www.w3.org/2000/svg">
<g clip-path="url(#clip0_634_1119)">
<rect width="379.909" height="242.715" transform="matrix(-1 0 0 1 380.187 0.609863)" fill="#2742C6" style="mix-blend-mode:hue"/>
<rect x="43.1475" y="1.65552" width="294.86" height="174.615" fill="#FAB8C6"/>
<path d="M234.848 33.8913C234.848 28.1166 239.529 23.4353 245.304 23.4353C251.078 23.4353 255.76 28.1166 255.76 33.8913C255.76 39.666 251.078 44.3473 245.304 44.3473C239.529 44.3473 234.848 39.666 234.848 33.8913Z" fill="white"/>
<path d="M264.125 33.8913C264.125 28.1166 268.806 23.4353 274.581 23.4353C280.355 23.4353 285.037 28.1166 285.037 33.8913C285.037 39.666 280.355 44.3473 274.581 44.3473C268.806 44.3473 264.125 39.666 264.125 33.8913Z" fill="white"/>
<path d="M293.401 33.8913C293.401 28.1166 298.083 23.4353 303.857 23.4353C309.632 23.4353 314.313 28.1166 314.313 33.8913C314.313 39.666 309.632 44.3473 303.857 44.3473C298.083 44.3473 293.401 39.666 293.401 33.8913Z" fill="white"/>
<rect width="234.215" height="168.342" transform="matrix(-1 0 0 1 234.848 74.6699)" fill="#C4C5FB"/>
<rect x="145.972" y="158.318" width="234.215" height="84.6937" fill="#B4FC88"/>
<rect x="0.633545" y="74.6699" width="234.215" height="168.342" fill="#C4C5FB"/>
<path d="M144.926 99.7644C144.926 93.9897 149.608 89.3083 155.382 89.3083C161.157 89.3083 165.838 93.9897 165.838 99.7644C165.838 105.539 161.157 110.22 155.382 110.22C149.608 110.22 144.926 105.539 144.926 99.7644Z" fill="#FAB8C6"/>
<path d="M174.203 99.7644C174.203 93.9897 178.884 89.3083 184.659 89.3083C190.434 89.3083 195.115 93.9897 195.115 99.7644C195.115 105.539 190.434 110.22 184.659 110.22C178.884 110.22 174.203 105.539 174.203 99.7644Z" fill="#FAB8C6"/>
<path d="M203.48 99.7644C203.48 93.9897 208.161 89.3083 213.936 89.3083C219.711 89.3083 224.392 93.9897 224.392 99.7644C224.392 105.539 219.711 110.22 213.936 110.22C208.161 110.22 203.48 105.539 203.48 99.7644Z" fill="#FAB8C6"/>
<path d="M117.694 291.109L105.289 256.6H48.2246L35.8193 291.109H0.633301L60.6299 133.224H92.8837L152.88 291.109H117.694ZM58.3744 228.181H95.1392L76.8696 176.981L58.3744 228.181Z" fill="white"/>
</g>
<defs>
<clipPath id="clip0_634_1119">
<rect width="379.909" height="242.715" fill="white" transform="matrix(-1 0 0 1 380.187 0.609863)"/>
</clipPath>
</defs>
</svg>
