<svg width="32" height="33" viewBox="0 0 32 33" fill="none" xmlns="http://www.w3.org/2000/svg">
<rect y="0.5" width="32" height="32" rx="16" fill="#F3F5FC"/>
<path d="M18.666 13.8334C19.7269 13.8334 20.7443 14.2548 21.4944 15.005C22.2446 15.7551 22.666 16.7725 22.666 17.8334V22.5H19.9994V17.8334C19.9994 17.4798 19.8589 17.1406 19.6088 16.8906C19.3588 16.6405 19.0196 16.5 18.666 16.5C18.3124 16.5 17.9733 16.6405 17.7232 16.8906C17.4732 17.1406 17.3327 17.4798 17.3327 17.8334V22.5H14.666V17.8334C14.666 16.7725 15.0874 15.7551 15.8376 15.005C16.5877 14.2548 17.6051 13.8334 18.666 13.8334Z" fill="#2742C6"/>
<path d="M12.0007 14.5H9.33398V22.5H12.0007V14.5Z" fill="#2742C6"/>
<path d="M10.6673 12.5C11.4037 12.5 12.0007 11.9031 12.0007 11.1667C12.0007 10.4303 11.4037 9.83337 10.6673 9.83337C9.93094 9.83337 9.33398 10.4303 9.33398 11.1667C9.33398 11.9031 9.93094 12.5 10.6673 12.5Z" fill="#2742C6"/>
</svg>
