<svg width="32" height="33" viewBox="0 0 32 33" fill="none" xmlns="http://www.w3.org/2000/svg">
<rect y="0.5" width="32" height="32" rx="16" fill="#F3F5FC"/>
<path d="M23.3327 10.5C22.6943 10.9503 21.9874 11.2947 21.2393 11.52C20.8378 11.0583 20.3042 10.7311 19.7107 10.5826C19.1172 10.4341 18.4923 10.4714 17.9207 10.6896C17.3491 10.9078 16.8583 11.2963 16.5147 11.8025C16.171 12.3087 15.9911 12.9082 15.9993 13.52V14.1867C14.8278 14.217 13.6669 13.9572 12.62 13.4303C11.5732 12.9034 10.6729 12.1257 9.99935 11.1667C9.99935 11.1667 7.33268 17.1667 13.3327 19.8333C11.9597 20.7653 10.3241 21.2326 8.66602 21.1667C14.666 24.5 21.9993 21.1667 21.9993 13.5C21.9987 13.3143 21.9809 13.129 21.946 12.9467C22.6264 12.2756 23.1066 11.4285 23.3327 10.5Z" fill="#2742C6"/>
</svg>
