<svg width="320" height="197" viewBox="0 0 320 197" fill="none" xmlns="http://www.w3.org/2000/svg">
<g filter="url(#filter0_d_634_1271)">
<g clip-path="url(#clip0_634_1271)">
<g filter="url(#filter1_b_634_1271)">
<rect width="289.264" height="265.926" transform="translate(14.9888 3.16895)" fill="black" fill-opacity="0.5"/>
</g>
<g clip-path="url(#clip1_634_1271)">
<mask id="mask0_634_1271" style="mask-type:luminance" maskUnits="userSpaceOnUse" x="-40" y="-58" width="486" height="405">
<rect x="21.5142" y="9.90967" width="30.2852" height="33.6502" stroke="white" stroke-width="0.336502"/>
<rect x="51.7993" y="9.90967" width="30.2852" height="33.6502" stroke="white" stroke-width="0.336502"/>
<rect x="82.0845" y="9.90967" width="30.2852" height="33.6502" stroke="white" stroke-width="0.336502"/>
<rect x="112.37" y="9.90967" width="30.2852" height="33.6502" stroke="white" stroke-width="0.336502"/>
<rect x="142.655" y="9.90967" width="30.2852" height="33.6502" stroke="white" stroke-width="0.336502"/>
<rect x="172.94" y="9.90967" width="30.2852" height="33.6502" stroke="white" stroke-width="0.336502"/>
<rect x="203.225" y="9.90967" width="30.2852" height="33.6502" stroke="white" stroke-width="0.336502"/>
<rect x="233.51" y="9.90967" width="30.2852" height="33.6502" stroke="white" stroke-width="0.336502"/>
<rect x="263.795" y="9.90967" width="30.2852" height="33.6502" stroke="white" stroke-width="0.336502"/>
<rect x="21.5142" y="43.5601" width="30.2852" height="33.6502" stroke="white" stroke-width="0.336502"/>
<rect x="51.7993" y="43.5601" width="30.2852" height="33.6502" stroke="white" stroke-width="0.336502"/>
<rect x="82.0845" y="43.5601" width="30.2852" height="33.6502" stroke="white" stroke-width="0.336502"/>
<rect x="112.37" y="43.5601" width="30.2852" height="33.6502" stroke="white" stroke-width="0.336502"/>
<rect x="142.655" y="43.5601" width="30.2852" height="33.6502" stroke="white" stroke-width="0.336502"/>
<rect x="172.94" y="43.5601" width="30.2852" height="33.6502" stroke="white" stroke-width="0.336502"/>
<rect x="203.225" y="43.5601" width="30.2852" height="33.6502" stroke="white" stroke-width="0.336502"/>
<rect x="233.51" y="43.5601" width="30.2852" height="33.6502" stroke="white" stroke-width="0.336502"/>
<rect x="263.795" y="43.5601" width="30.2852" height="33.6502" stroke="white" stroke-width="0.336502"/>
<rect x="21.5142" y="77.2104" width="30.2852" height="33.6502" stroke="white" stroke-width="0.336502"/>
<rect x="51.7993" y="77.2104" width="30.2852" height="33.6502" stroke="white" stroke-width="0.336502"/>
<rect x="82.0845" y="77.2104" width="30.2852" height="33.6502" stroke="white" stroke-width="0.336502"/>
<rect x="112.37" y="77.2104" width="30.2852" height="33.6502" stroke="white" stroke-width="0.336502"/>
<rect x="142.655" y="77.2104" width="30.2852" height="33.6502" stroke="white" stroke-width="0.336502"/>
<rect x="172.94" y="77.2104" width="30.2852" height="33.6502" stroke="white" stroke-width="0.336502"/>
<rect x="203.225" y="77.2104" width="30.2852" height="33.6502" stroke="white" stroke-width="0.336502"/>
<rect x="233.51" y="77.2104" width="30.2852" height="33.6502" stroke="white" stroke-width="0.336502"/>
<rect x="263.795" y="77.2104" width="30.2852" height="33.6502" stroke="white" stroke-width="0.336502"/>
<rect x="21.5142" y="110.86" width="30.2852" height="33.6502" stroke="white" stroke-width="0.336502"/>
<rect x="51.7993" y="110.86" width="30.2852" height="33.6502" stroke="white" stroke-width="0.336502"/>
<rect x="82.0845" y="110.86" width="30.2852" height="33.6502" stroke="white" stroke-width="0.336502"/>
<rect x="112.37" y="110.86" width="30.2852" height="33.6502" stroke="white" stroke-width="0.336502"/>
<rect x="142.655" y="110.86" width="30.2852" height="33.6502" stroke="white" stroke-width="0.336502"/>
<rect x="172.94" y="110.86" width="30.2852" height="33.6502" stroke="white" stroke-width="0.336502"/>
<rect x="203.225" y="110.86" width="30.2852" height="33.6502" stroke="white" stroke-width="0.336502"/>
<rect x="233.51" y="110.86" width="30.2852" height="33.6502" stroke="white" stroke-width="0.336502"/>
<rect x="263.795" y="110.86" width="30.2852" height="33.6502" stroke="white" stroke-width="0.336502"/>
<rect x="21.5142" y="144.511" width="30.2852" height="33.6502" stroke="white" stroke-width="0.336502"/>
<rect x="51.7993" y="144.511" width="30.2852" height="33.6502" stroke="white" stroke-width="0.336502"/>
<rect x="82.0845" y="144.511" width="30.2852" height="33.6502" stroke="white" stroke-width="0.336502"/>
<rect x="112.37" y="144.511" width="30.2852" height="33.6502" stroke="white" stroke-width="0.336502"/>
<rect x="142.655" y="144.511" width="30.2852" height="33.6502" stroke="white" stroke-width="0.336502"/>
<rect x="172.94" y="144.511" width="30.2852" height="33.6502" stroke="white" stroke-width="0.336502"/>
<rect x="203.225" y="144.511" width="30.2852" height="33.6502" stroke="white" stroke-width="0.336502"/>
<rect x="233.51" y="144.511" width="30.2852" height="33.6502" stroke="white" stroke-width="0.336502"/>
<rect x="263.795" y="144.511" width="30.2852" height="33.6502" stroke="white" stroke-width="0.336502"/>
</mask>
<g mask="url(#mask0_634_1271)">
<rect x="-39.0564" y="-57.3906" width="484.563" height="332.053" fill="url(#paint0_radial_634_1271)" fill-opacity="0.1"/>
</g>
<g filter="url(#filter2_d_634_1271)">
<g filter="url(#filter3_d_634_1271)">
<rect x="118.78" y="44.894" width="82.4494" height="82.4494" rx="5.52733" fill="#232323"/>
<rect x="119.01" y="45.1243" width="81.9887" height="81.9887" rx="5.29703" stroke="#737373" stroke-width="0.460611"/>
</g>
<mask id="mask1_634_1271" style="mask-type:alpha" maskUnits="userSpaceOnUse" x="154" y="80" width="12" height="12">
<rect x="154.875" y="80.9312" width="11.0547" height="11.0547" fill="white"/>
</mask>
<g mask="url(#mask1_634_1271)">
<path d="M159.021 84.6159H161.784V83.6947C161.784 83.3108 161.65 82.9845 161.381 82.7159C161.113 82.4472 160.787 82.3128 160.403 82.3128C160.019 82.3128 159.693 82.4472 159.424 82.7159C159.155 82.9845 159.021 83.3108 159.021 83.6947V84.6159ZM163.166 91.525C162.529 91.525 161.986 91.3005 161.537 90.8514C161.088 90.4023 160.863 89.8592 160.863 89.222C160.863 88.5848 161.088 88.0417 161.537 87.5926C161.986 87.1435 162.529 86.9189 163.166 86.9189C163.804 86.9189 164.347 87.1435 164.796 87.5926C165.245 88.0417 165.469 88.5848 165.469 89.222C165.469 89.8592 165.245 90.4023 164.796 90.8514C164.347 91.3005 163.804 91.525 163.166 91.525ZM160.518 91.0644H157.639C157.386 91.0644 157.169 90.9742 156.988 90.7938C156.808 90.6134 156.718 90.3965 156.718 90.1432V85.5371C156.718 85.2838 156.808 85.0669 156.988 84.8865C157.169 84.7061 157.386 84.6159 157.639 84.6159H158.1V83.6947C158.1 83.0575 158.324 82.5143 158.773 82.0652C159.222 81.6161 159.765 81.3916 160.403 81.3916C161.04 81.3916 161.583 81.6161 162.032 82.0652C162.481 82.5143 162.706 83.0575 162.706 83.6947V84.6159H163.166C163.42 84.6159 163.637 84.7061 163.817 84.8865C163.997 85.0669 164.088 85.2838 164.088 85.5371V86.1359C163.934 86.0822 163.78 86.0457 163.627 86.0265C163.473 86.0073 163.32 85.9977 163.166 85.9977C162.268 85.9977 161.506 86.3105 160.881 86.9362C160.255 87.5619 159.942 88.3238 159.942 89.222C159.942 89.5521 159.994 89.8726 160.098 90.1835C160.201 90.4944 160.341 90.7881 160.518 91.0644ZM163.166 89.222C163.358 89.222 163.521 89.1548 163.656 89.0205C163.79 88.8861 163.857 88.723 163.857 88.5311C163.857 88.3392 163.79 88.176 163.656 88.0417C163.521 87.9073 163.358 87.8402 163.166 87.8402C162.974 87.8402 162.811 87.9073 162.677 88.0417C162.543 88.176 162.475 88.3392 162.475 88.5311C162.475 88.723 162.543 88.8861 162.677 89.0205C162.811 89.1548 162.974 89.222 163.166 89.222ZM163.166 90.6038C163.397 90.6038 163.612 90.5501 163.811 90.4426C164.011 90.3351 164.176 90.1854 164.306 89.9935C164.13 89.886 163.946 89.8073 163.754 89.7574C163.562 89.7075 163.366 89.6826 163.166 89.6826C162.967 89.6826 162.771 89.7075 162.579 89.7574C162.387 89.8073 162.203 89.886 162.026 89.9935C162.157 90.1854 162.322 90.3351 162.521 90.4426C162.721 90.5501 162.936 90.6038 163.166 90.6038Z" fill="#63BA23"/>
</g>
<path d="M136.443 110.323C136.443 111.308 137.241 112.106 138.226 112.106C139.21 112.106 140.009 111.308 140.009 110.323C140.009 109.339 139.21 108.54 138.226 108.54C137.241 108.54 136.443 109.339 136.443 110.323ZM148.255 104.306V107.649H148.924V104.306H148.255ZM145.915 109.989H138.226V110.658H145.915V109.989ZM148.255 107.649C148.255 108.941 147.207 109.989 145.915 109.989V110.658C147.577 110.658 148.924 109.311 148.924 107.649H148.255Z" fill="#D4D4D4"/>
<path d="M183.135 110.323C183.135 111.308 182.337 112.106 181.352 112.106C180.367 112.106 179.569 111.308 179.569 110.323C179.569 109.339 180.367 108.54 181.352 108.54C182.337 108.54 183.135 109.339 183.135 110.323ZM171.323 104.306V107.649H170.654V104.306H171.323ZM173.663 109.989H181.352V110.658H173.663V109.989ZM171.323 107.649C171.323 108.941 172.37 109.989 173.663 109.989V110.658C172.001 110.658 170.654 109.311 170.654 107.649H171.323Z" fill="#D4D4D4"/>
<path d="M183.135 63.2885C183.135 62.3037 182.337 61.5055 181.352 61.5055C180.367 61.5055 179.569 62.3037 179.569 63.2885C179.569 64.2732 180.367 65.0715 181.352 65.0715C182.337 65.0715 183.135 64.2732 183.135 63.2885ZM171.323 69.3062V65.963H170.654V69.3062H171.323ZM173.663 63.6228H181.352V62.9542H173.663V63.6228ZM171.323 65.963C171.323 64.6705 172.37 63.6228 173.663 63.6228V62.9542C172.001 62.9542 170.654 64.3013 170.654 65.963H171.323Z" fill="#D4D4D4"/>
<path d="M136.443 63.2885C136.443 62.3037 137.241 61.5055 138.226 61.5055C139.21 61.5055 140.009 62.3037 140.009 63.2885C140.009 64.2732 139.21 65.0715 138.226 65.0715C137.241 65.0715 136.443 64.2732 136.443 63.2885ZM148.255 69.3062V65.963H148.924V69.3062H148.255ZM145.915 63.6228H138.226V62.9542H145.915V63.6228ZM148.255 65.963C148.255 64.6705 147.207 63.6228 145.915 63.6228V62.9542C147.577 62.9542 148.924 64.3013 148.924 65.963H148.255Z" fill="#D4D4D4"/>
<path d="M157.839 59.1729C157.839 60.1576 158.637 60.9559 159.622 60.9559C160.606 60.9559 161.405 60.1576 161.405 59.1729C161.405 58.1881 160.606 57.3898 159.622 57.3898C158.637 57.3898 157.839 58.1881 157.839 59.1729ZM159.956 69.8709V59.1729H159.287V69.8709H159.956Z" fill="#D4D4D4"/>
<path d="M157.839 112.663C157.839 111.678 158.637 110.88 159.622 110.88C160.606 110.88 161.405 111.678 161.405 112.663C161.405 113.648 160.606 114.446 159.622 114.446C158.637 114.446 157.839 113.648 157.839 112.663ZM159.956 101.965V112.663H159.287V101.965H159.956Z" fill="#D4D4D4"/>
<path d="M130.756 83.0203C131.741 83.0203 132.539 82.222 132.539 81.2373C132.539 80.2526 131.741 79.4543 130.756 79.4543C129.771 79.4543 128.973 80.2526 128.973 81.2373C128.973 82.222 129.771 83.0203 130.756 83.0203ZM139.677 80.903H130.756V81.5716H139.677V80.903Z" fill="#D4D4D4"/>
<path d="M130.87 95.3899C131.855 95.3899 132.653 94.5917 132.653 93.6069C132.653 92.6222 131.855 91.8239 130.87 91.8239C129.885 91.8239 129.087 92.6222 129.087 93.6069C129.087 94.5917 129.885 95.3899 130.87 95.3899ZM139.791 93.2726H130.87V93.9412H139.791V93.2726Z" fill="#D4D4D4"/>
<path d="M189.384 82.6863C188.4 82.6863 187.601 81.8881 187.601 80.9033C187.601 79.9186 188.4 79.1203 189.384 79.1203C190.369 79.1203 191.167 79.9186 191.167 80.9033C191.167 81.8881 190.369 82.6863 189.384 82.6863ZM180.464 80.569H189.384V81.2376H180.464V80.569Z" fill="#D4D4D4"/>
<path d="M189.27 95.056C188.285 95.056 187.487 94.2577 187.487 93.2729C187.487 92.2882 188.285 91.4899 189.27 91.4899C190.255 91.4899 191.053 92.2882 191.053 93.2729C191.053 94.2577 190.255 95.056 189.27 95.056ZM180.349 92.9386H189.27V93.6073H180.349V92.9386Z" fill="#D4D4D4"/>
<path d="M143.909 75.5544C143.909 74.2619 144.956 73.2142 146.249 73.2142H173.663C174.955 73.2142 176.003 74.2619 176.003 75.5544V99.6251C176.003 100.918 174.955 101.965 173.663 101.965H146.249C144.956 101.965 143.909 100.918 143.909 99.6251V75.5544Z" stroke="#E1E1E1" stroke-width="0.668631"/>
</g>
</g>
</g>
<rect x="15.2958" y="3.47602" width="289.264" height="165.206" rx="5.22026" stroke="url(#paint1_linear_634_1271)" stroke-width="0.614148" shape-rendering="crispEdges"/>
</g>
<defs>
<filter id="filter0_d_634_1271" x="0.24922" y="0.712354" width="319.357" height="195.299" filterUnits="userSpaceOnUse" color-interpolation-filters="sRGB">
<feFlood flood-opacity="0" result="BackgroundImageFix"/>
<feColorMatrix in="SourceAlpha" type="matrix" values="0 0 0 0 0 0 0 0 0 0 0 0 0 0 0 0 0 0 127 0" result="hardAlpha"/>
<feOffset dy="12.283"/>
<feGaussianBlur stdDeviation="7.36977"/>
<feComposite in2="hardAlpha" operator="out"/>
<feColorMatrix type="matrix" values="0 0 0 0 0 0 0 0 0 0 0 0 0 0 0 0 0 0 0.33 0"/>
<feBlend mode="normal" in2="BackgroundImageFix" result="effect1_dropShadow_634_1271"/>
<feBlend mode="normal" in="SourceGraphic" in2="effect1_dropShadow_634_1271" result="shape"/>
</filter>
<filter id="filter1_b_634_1271" x="-21.8601" y="-33.6799" width="362.961" height="339.624" filterUnits="userSpaceOnUse" color-interpolation-filters="sRGB">
<feFlood flood-opacity="0" result="BackgroundImageFix"/>
<feGaussianBlur in="BackgroundImageFix" stdDeviation="18.4244"/>
<feComposite in2="SourceAlpha" operator="in" result="effect1_backgroundBlur_634_1271"/>
<feBlend mode="normal" in="SourceGraphic" in2="effect1_backgroundBlur_634_1271" result="shape"/>
</filter>
<filter id="filter2_d_634_1271" x="105.883" y="39.3667" width="108.243" height="108.243" filterUnits="userSpaceOnUse" color-interpolation-filters="sRGB">
<feFlood flood-opacity="0" result="BackgroundImageFix"/>
<feColorMatrix in="SourceAlpha" type="matrix" values="0 0 0 0 0 0 0 0 0 0 0 0 0 0 0 0 0 0 127 0" result="hardAlpha"/>
<feOffset dy="7.36977"/>
<feGaussianBlur stdDeviation="6.44855"/>
<feComposite in2="hardAlpha" operator="out"/>
<feColorMatrix type="matrix" values="0 0 0 0 0 0 0 0 0 0 0 0 0 0 0 0 0 0 0.06 0"/>
<feBlend mode="normal" in2="BackgroundImageFix" result="effect1_dropShadow_634_1271"/>
<feBlend mode="normal" in="SourceGraphic" in2="effect1_dropShadow_634_1271" result="shape"/>
</filter>
<filter id="filter3_d_634_1271" x="108.953" y="42.4375" width="102.102" height="102.102" filterUnits="userSpaceOnUse" color-interpolation-filters="sRGB">
<feFlood flood-opacity="0" result="BackgroundImageFix"/>
<feColorMatrix in="SourceAlpha" type="matrix" values="0 0 0 0 0 0 0 0 0 0 0 0 0 0 0 0 0 0 127 0" result="hardAlpha"/>
<feOffset dy="7.36977"/>
<feGaussianBlur stdDeviation="4.91318"/>
<feComposite in2="hardAlpha" operator="out"/>
<feColorMatrix type="matrix" values="0 0 0 0 0 0 0 0 0 0 0 0 0 0 0 0 0 0 0.32 0"/>
<feBlend mode="normal" in2="BackgroundImageFix" result="effect1_dropShadow_634_1271"/>
<feBlend mode="normal" in="SourceGraphic" in2="effect1_dropShadow_634_1271" result="shape"/>
</filter>
<radialGradient id="paint0_radial_634_1271" cx="0" cy="0" r="1" gradientUnits="userSpaceOnUse" gradientTransform="translate(203.225 79.9964) rotate(90) scale(239.355 349.289)">
<stop offset="0.222699" stop-color="#FFF2B3"/>
<stop offset="0.587699" stop-color="#C2C2C2" stop-opacity="0.07"/>
</radialGradient>
<linearGradient id="paint1_linear_634_1271" x1="44.1608" y1="95.2911" x2="295.961" y2="14.8377" gradientUnits="userSpaceOnUse">
<stop stop-color="#292929"/>
<stop offset="1" stop-color="#707070"/>
</linearGradient>
<clipPath id="clip0_634_1271">
<rect x="14.9888" y="3.16895" width="289.878" height="165.82" rx="5.52733" fill="white"/>
</clipPath>
<clipPath id="clip1_634_1271">
<rect width="259.785" height="135.083" fill="white" transform="translate(30.3423 18.7637)"/>
</clipPath>
</defs>
</svg>
