<svg width="272" height="57" viewBox="0 0 272 57" fill="none" xmlns="http://www.w3.org/2000/svg">
<mask id="mask0_634_3877" style="mask-type:luminance" maskUnits="userSpaceOnUse" x="0" y="0" width="272" height="57">
<path d="M271.637 0.716461H0V56.7165H271.637V0.716461Z" fill="white"/>
</mask>
<g mask="url(#mask0_634_3877)">
<path d="M62.7422 51.421C62.7433 50.7847 62.8636 50.154 63.0964 49.5614C63.3293 48.9505 63.6796 48.3911 64.1275 47.9146C64.597 47.4189 65.1595 47.0205 65.7828 46.7418C66.4837 46.4328 67.2434 46.2791 68.0097 46.2922C68.9004 46.2698 69.781 46.4854 70.5608 46.9164C71.2399 47.2901 71.7965 47.8524 72.1635 48.5354L70.5707 49.5928C70.4428 49.3212 70.2694 49.0733 70.0586 48.86C69.8687 48.6704 69.6503 48.5122 69.4112 48.3906C69.1817 48.276 68.9389 48.1908 68.6882 48.1368C68.4449 48.0853 68.197 48.0587 67.9486 48.0578C67.4763 48.0468 67.0086 48.1501 66.5847 48.3592C66.2129 48.5524 65.8853 48.8212 65.623 49.148C65.3641 49.4763 65.1682 49.8492 65.0449 50.2485C64.9159 50.6429 64.8491 51.0554 64.8471 51.4705C64.8454 51.9196 64.9224 52.3655 65.0746 52.7883C65.2158 53.1943 65.4334 53.5701 65.7152 53.8949C65.9894 54.2144 66.3255 54.475 66.7036 54.6609C67.0986 54.8555 67.5343 54.9543 67.9749 54.9492C68.2293 54.9489 68.4828 54.92 68.7309 54.8635C68.9896 54.8043 69.2394 54.7112 69.4737 54.5867C69.7153 54.4583 69.9372 54.2956 70.1327 54.104C70.3376 53.8989 70.5003 53.6555 70.6117 53.3876L72.3134 54.3264C72.1423 54.7121 71.8938 55.0584 71.5837 55.3445C71.2648 55.6424 70.9057 55.8934 70.5164 56.0904C70.112 56.2966 69.6839 56.4522 69.2414 56.5533C68.8104 56.6599 68.3682 56.7151 67.924 56.7179C67.2004 56.7264 66.4846 56.568 65.8321 56.2553C65.2172 55.9579 64.6637 55.5476 64.2 55.0463C63.7441 54.5516 63.3814 53.9784 63.1293 53.3547C62.8772 52.7419 62.7467 52.0854 62.7456 51.4227L62.7422 51.421Z" fill="#202020"/>
<path d="M81.3199 51.497C81.3188 51.935 81.3901 52.3702 81.5307 52.785C81.6637 53.1851 81.8697 53.5569 82.1385 53.882C82.4082 54.2029 82.7412 54.4647 83.117 54.6511C83.5321 54.8435 83.9842 54.9431 84.4418 54.9431C84.8996 54.9431 85.3518 54.8435 85.7669 54.6511C86.1443 54.4576 86.4774 54.1876 86.7453 53.8589C87.0119 53.5312 87.2159 53.1571 87.3466 52.7553C87.4807 52.3516 87.5498 51.9291 87.5506 51.5035C87.552 51.0647 87.4773 50.6289 87.3299 50.2155C87.1944 49.8143 86.9861 49.4414 86.7156 49.1154C86.2742 48.6148 85.6823 48.2713 85.0286 48.1369C84.375 48.0022 83.6953 48.0837 83.0921 48.3692C82.7143 48.5577 82.3807 48.8242 82.1139 49.1516C81.8516 49.4798 81.6501 49.8525 81.5191 50.2517C81.3853 50.6555 81.3174 51.0782 81.3182 51.5035L81.3199 51.497ZM84.4214 56.7034C83.6874 56.7133 82.9599 56.5633 82.2899 56.2637C81.6697 55.9841 81.11 55.5857 80.6431 55.0908C80.187 54.6056 79.8271 54.0382 79.5823 53.4191C79.333 52.8088 79.2051 52.156 79.2051 51.497C79.2023 50.8208 79.3375 50.151 79.6021 49.5288C79.863 48.9105 80.2359 48.346 80.7022 47.8636C81.177 47.3746 81.7427 46.983 82.3674 46.7106C83.0256 46.4219 83.7375 46.2765 84.4559 46.2841C85.1862 46.2739 85.9095 46.4299 86.5707 46.7403C87.1879 47.028 87.7436 47.4332 88.2062 47.9326C88.6558 48.4236 89.0121 48.9923 89.2571 49.6111C89.7653 50.8516 89.7605 52.2429 89.2438 53.48C88.9883 54.0917 88.6207 54.6503 88.1601 55.1271C87.6884 55.6126 87.1259 56.0011 86.5048 56.2702C85.8455 56.5585 85.1328 56.704 84.4132 56.6966L84.4214 56.7034Z" fill="#202020"/>
<path d="M96.8242 56.6279V46.3569H98.9011V54.8787H104.349V56.6296L96.8242 56.6279Z" fill="#202020"/>
<path d="M111.529 56.6279V46.3569H113.606V54.8787H119.056V56.6296L111.529 56.6279Z" fill="#202020"/>
<path d="M133.655 54.8783V56.6292H126.235V46.3582H133.52V48.1089H128.312V50.5797H132.813V52.2004H128.312V54.8766L133.655 54.8783Z" fill="#202020"/>
<path d="M140.604 51.4209C140.604 50.7846 140.724 50.1538 140.955 49.5613C141.188 48.9504 141.539 48.3908 141.986 47.9143C142.457 47.4194 143.019 47.021 143.642 46.7417C144.344 46.4321 145.105 46.2788 145.872 46.2921C146.763 46.2703 147.644 46.4856 148.425 46.9163C149.103 47.29 149.659 47.8526 150.024 48.5353L148.431 49.5927C148.303 49.3211 148.13 49.0732 147.919 48.8596C147.729 48.6703 147.511 48.5118 147.272 48.3905C147.042 48.2756 146.8 48.1904 146.549 48.1367C146.306 48.0846 146.058 48.0583 145.809 48.0577C145.338 48.0461 144.871 48.1497 144.449 48.3591C144.075 48.5515 143.746 48.8203 143.484 49.1479C143.225 49.4759 143.029 49.8488 142.905 50.2481C142.776 50.6428 142.71 51.0551 142.708 51.4704C142.706 51.9195 142.783 52.3654 142.935 52.7879C143.078 53.1936 143.295 53.5688 143.576 53.8948C143.851 54.2134 144.187 54.474 144.564 54.6608C144.959 54.8554 145.395 54.9542 145.835 54.9488C146.09 54.9485 146.344 54.9199 146.592 54.8634C146.85 54.8048 147.1 54.7117 147.334 54.5866C147.577 54.4587 147.798 54.296 147.993 54.1039C148.198 53.8979 148.362 53.6549 148.476 53.3875L150.174 54.3263C150.003 54.712 149.754 55.0583 149.444 55.3441C149.126 55.642 148.766 55.8933 148.377 56.0903C147.973 56.2965 147.545 56.4519 147.102 56.5532C146.671 56.6596 146.229 56.715 145.785 56.7178C145.061 56.7263 144.345 56.5679 143.693 56.2549C143.078 55.9575 142.524 55.5475 142.061 55.0461C141.605 54.5513 141.242 53.9783 140.99 53.3546C140.741 52.7409 140.612 52.085 140.61 51.4226L140.604 51.4209Z" fill="#202020"/>
<path d="M165.766 48.1075H162.349V56.6296H160.287V48.1075H156.869V46.3569H165.763V48.1075H165.766Z" fill="#202020"/>
<path d="M173.228 56.6279V46.3569H175.304V56.6279H173.228Z" fill="#202020"/>
<path d="M184.3 51.497C184.299 51.935 184.371 52.3702 184.511 52.785C184.644 53.1851 184.85 53.5569 185.119 53.882C185.389 54.2029 185.722 54.4647 186.097 54.6511C186.513 54.8435 186.965 54.9431 187.423 54.9431C187.88 54.9431 188.332 54.8435 188.748 54.6511C189.125 54.4573 189.458 54.1876 189.726 53.8589C189.992 53.5312 190.196 53.1571 190.327 52.7553C190.461 52.3516 190.53 51.9291 190.531 51.5035C190.532 51.0647 190.458 50.6289 190.311 50.2155C190.175 49.8143 189.967 49.4414 189.696 49.1154C189.427 48.7962 189.094 48.5373 188.718 48.3559C188.113 48.0608 187.425 47.9788 186.768 48.1233C186.11 48.2677 185.52 48.6301 185.094 49.1516C184.83 49.4784 184.628 49.8514 184.5 50.2517C184.363 50.655 184.294 51.078 184.296 51.5035L184.3 51.497ZM187.402 56.7034C186.668 56.7133 185.941 56.5633 185.271 56.2637C184.65 55.9841 184.091 55.5857 183.624 55.0908C183.167 54.605 182.807 54.038 182.56 53.4191C182.313 52.8082 182.186 52.1557 182.186 51.497C182.183 50.8208 182.318 50.151 182.583 49.5288C182.843 48.9105 183.216 48.346 183.683 47.8636C184.157 47.3755 184.721 46.9842 185.345 46.7106C186.004 46.4222 186.717 46.2768 187.436 46.2841C188.167 46.2739 188.89 46.4299 189.551 46.7403C190.169 47.028 190.724 47.4329 191.187 47.9326C191.636 48.4236 191.992 48.9923 192.238 49.6111C192.746 50.8516 192.741 52.2429 192.225 53.48C191.969 54.0917 191.601 54.6503 191.141 55.1271C190.669 55.6126 190.107 56.0011 189.485 56.2702C188.826 56.5585 188.113 56.704 187.394 56.6966L187.402 56.7034Z" fill="#202020"/>
<path d="M201.721 50.0506V56.6389H199.644V46.368H201.254L206.825 53.1094V46.381H208.902V56.6389H207.215L201.721 50.0506Z" fill="#202020"/>
<path d="M68.1842 22.7352C68.8217 23.317 69.5195 23.8289 70.2659 24.2621C70.9894 24.68 71.7489 25.0317 72.5358 25.3127C73.4497 25.6372 74.4135 25.7982 75.3834 25.7889C75.9123 25.7909 76.4388 25.7165 76.9465 25.5682C77.4278 25.4344 77.8819 25.2162 78.2871 24.9242C78.677 24.6404 78.9959 24.2708 79.2194 23.8436C79.4588 23.364 79.5771 22.8329 79.5635 22.2969C79.576 21.6835 79.3686 21.0859 78.9789 20.6119C78.5398 20.0958 78.0169 19.657 77.4323 19.3143C76.7334 18.8944 76.0045 18.5268 75.2516 18.2139C74.4395 17.8698 73.6045 17.5074 72.7548 17.1237C71.9048 16.74 71.0698 16.3181 70.2546 15.8555C69.462 15.4073 68.7294 14.8612 68.0738 14.2296C67.4332 13.6077 66.9095 12.8757 66.5272 12.0687C66.1195 11.1584 65.9197 10.1689 65.9426 9.17149C65.9341 8.02354 66.186 6.88833 66.6786 5.85129C67.1633 4.8352 67.8543 3.93144 68.7079 3.19773C69.6125 2.42781 70.6516 1.8319 71.7729 1.44029C73.0089 1.00907 74.3099 0.794594 75.6188 0.806196C76.8854 0.788369 78.1476 0.954743 79.366 1.30023C80.2958 1.56904 81.1984 1.92415 82.0623 2.36103C82.8523 2.77132 83.5798 3.29224 84.2232 3.90767L81.9437 8.17181C81.3744 7.69956 80.763 7.28079 80.117 6.92002C79.469 6.5751 78.7936 6.28422 78.0978 6.0505C77.286 5.77801 76.434 5.64389 75.5778 5.65351C74.9992 5.6487 74.4236 5.73669 73.873 5.91382C73.3744 6.06832 72.9073 6.30968 72.4928 6.62687C72.1122 6.92058 71.7987 7.29239 71.5737 7.71739C71.3468 8.14408 71.2308 8.62085 71.2361 9.10414C71.2226 9.70627 71.4305 10.2923 71.8207 10.7512C72.2596 11.254 72.7788 11.6805 73.3575 12.0129C74.0527 12.4181 74.7785 12.7684 75.5283 13.0604C76.3404 13.3898 77.1754 13.7339 78.0155 14.1011C78.8553 14.4687 79.6903 14.8869 80.5058 15.343C81.3006 15.7867 82.0312 16.3371 82.6766 16.9788C83.3166 17.6214 83.837 18.3732 84.2133 19.1989C84.6219 20.1425 84.8214 21.1634 84.7979 22.1917C84.8033 23.3077 84.5843 24.4132 84.1539 25.4429C83.7261 26.4587 83.0903 27.3737 82.2878 28.1292C81.4254 28.9325 80.4113 29.5559 79.3052 29.9625C78.0152 30.4314 76.6502 30.6597 75.2779 30.6359C73.8385 30.6427 72.4059 30.4359 71.027 30.0216C70.4458 29.851 69.8763 29.6425 69.3222 29.3974C68.8358 29.1844 68.3622 28.943 67.9041 28.6745C66.9646 28.1357 66.1033 27.4708 65.3447 26.698L68.1842 22.7352Z" fill="#202020"/>
<path d="M99.8197 18.0763L90.2422 1.30097H96.1715L100.671 9.78823C100.912 10.2347 101.131 10.6909 101.33 11.1555C101.529 11.6198 101.714 12.0349 101.875 12.4039C102.037 12.7728 102.159 13.0807 102.249 13.3164C102.34 13.5518 102.397 13.6673 102.414 13.654H102.513C102.677 13.244 102.842 12.819 103.028 12.3824C103.193 12.0151 103.369 11.6 103.583 11.1439C103.797 10.6877 104.02 10.2347 104.257 9.78681L108.717 1.29956H114.647L105.069 18.0746V30.1296H99.8165L99.8197 18.0763Z" fill="#202020"/>
<path d="M0.000594366 15.5961C-0.0171724 13.5942 0.363539 11.609 1.12058 9.75564C1.83035 7.99764 2.8855 6.39951 4.22365 5.05632C5.56177 3.71313 7.15566 2.65177 8.91112 1.93533C10.7833 1.16937 12.7898 0.785115 14.8125 0.805488C15.639 0.799546 16.4648 0.854431 17.2831 0.970159C18.012 1.07231 18.7338 1.22029 19.4441 1.41327C20.0681 1.58531 20.6804 1.79696 21.2773 2.04738C21.792 2.26667 22.295 2.51227 22.7843 2.78362C23.7603 3.31473 24.6605 3.97459 25.4607 4.74536L22.9407 8.65382C22.2561 8.06866 21.512 7.5568 20.7205 7.12699C19.9254 6.70142 19.0929 6.34971 18.2335 6.07609C15.8571 5.34635 13.302 5.45756 10.998 6.39075C9.84487 6.88903 8.80778 7.62159 7.95252 8.54176C7.11494 9.45628 6.46822 10.5284 6.05018 11.6959C5.60733 12.9191 5.3843 14.2111 5.39138 15.5121C5.38546 16.8499 5.6146 18.1784 6.06832 19.437C6.49666 20.6441 7.15249 21.7578 8.00034 22.7178C8.89072 23.7181 9.98723 24.5135 11.2144 25.0494C12.4415 25.5856 13.7702 25.8493 15.109 25.8227C15.7106 25.8221 16.311 25.767 16.9027 25.658C17.4504 25.5573 17.9903 25.4181 18.5184 25.2412C19.0036 25.0766 19.4778 24.8813 19.9382 24.6566C20.3812 24.4359 20.7864 24.2167 21.157 23.9976C21.9996 23.4841 22.7781 22.872 23.4761 22.1746L26.2316 25.9413C25.3649 26.8428 24.3856 27.6288 23.3179 28.2802C22.7976 28.5948 22.2616 28.8829 21.712 29.1432C21.0835 29.44 20.4346 29.6916 19.7702 29.8959C18.197 30.3811 16.5593 30.625 14.913 30.6188C13.5077 30.6267 12.1075 30.4513 10.7476 30.0968C9.47966 29.7648 8.2612 29.2663 7.12408 28.6143C6.03074 27.9811 5.02936 27.2007 4.14784 26.2952C3.27085 25.3901 2.51765 24.3728 1.90786 23.2699C1.28242 22.1332 0.806299 20.9211 0.491375 19.6628C0.157793 18.3332 -0.00706807 16.9668 0.000594366 15.5961Z" fill="#202020"/>
<path d="M61.4279 11.5622C61.0948 10.328 60.605 9.14098 59.9704 8.03094C59.3456 6.94326 58.5754 5.94585 57.681 5.06642C56.7817 4.18134 55.7727 3.4151 54.6782 2.78693C53.5529 2.14547 52.3495 1.65228 51.0977 1.31924C48.4413 0.631663 45.6537 0.631663 42.9976 1.31924C41.7429 1.6503 40.537 2.14378 39.4102 2.78693C37.2179 4.03901 35.3945 5.84738 34.1246 8.02953C33.484 9.13758 32.9908 10.3249 32.6572 11.5608C32.3112 12.8497 32.1377 14.179 32.1417 15.5137C32.1372 16.8846 32.3103 18.2505 32.6572 19.5769C33.3117 22.0887 34.6062 24.3883 36.4143 26.2507C37.3031 27.1647 38.3107 27.9547 39.4102 28.5995C40.5344 29.2549 41.7407 29.7582 42.9976 30.0967C45.6525 30.793 48.4425 30.793 51.0977 30.0967C52.3515 29.7566 53.5555 29.2532 54.6782 28.5995C56.8895 27.2982 58.7157 25.4336 59.9704 23.1954C60.6076 22.0542 61.0971 20.8367 61.4279 19.5718C61.7748 18.2456 61.9482 16.8798 61.9437 15.5086C61.9468 14.1762 61.7736 12.8491 61.4279 11.5622ZM56.7701 18.3285C56.548 19.1848 56.2158 20.0085 55.7821 20.7792C55.3599 21.5319 54.8398 22.2254 54.2354 22.8414C53.6319 23.4602 52.9477 23.995 52.2013 24.4308C51.4424 24.8733 50.6283 25.2134 49.78 25.442C47.9858 25.9149 46.0996 25.9149 44.3051 25.442C43.4545 25.2146 42.6379 24.8744 41.8773 24.4308C41.1326 23.9956 40.4504 23.4608 39.85 22.8414C38.6262 21.5828 37.751 20.0277 37.3102 18.3285C37.075 17.4324 36.9582 16.5094 36.9627 15.5827C36.9584 14.6793 37.0753 13.7789 37.3102 12.9063C37.5323 12.0701 37.8647 11.2668 38.2985 10.5181C39.1559 9.04166 40.389 7.81873 41.8725 6.97354C42.6348 6.53892 43.4511 6.20644 44.3003 5.98546C46.0956 5.52113 47.9798 5.52113 49.7752 5.98546C50.6218 6.20786 51.4359 6.54005 52.1962 6.97354C52.9383 7.39628 53.6223 7.91408 54.2303 8.51367C54.8344 9.10844 55.3548 9.78272 55.777 10.5181C56.2096 11.2674 56.5418 12.0704 56.7653 12.9063C57.0013 13.7789 57.1193 14.679 57.1159 15.5827C57.1213 16.5091 57.0047 17.4324 56.7701 18.3285Z" fill="#202020"/>
<path d="M196.593 1.21252H201.83V19.6923C201.814 20.5689 201.969 21.4399 202.287 22.2571C202.57 22.9766 203.01 23.6243 203.575 24.1526C204.155 24.6828 204.841 25.0846 205.587 25.3319C207.296 25.8752 209.131 25.8752 210.84 25.3319C211.588 25.0832 212.277 24.6814 212.862 24.1526C213.434 23.624 213.878 22.9724 214.16 22.2471C214.479 21.4189 214.633 20.5367 214.616 19.6496V1.21252H219.852V19.6923C219.871 21.2036 219.587 22.7033 219.017 24.1033C218.484 25.4001 217.678 26.5673 216.654 27.526C215.592 28.5047 214.344 29.2596 212.984 29.746C211.465 30.2904 209.861 30.5587 208.247 30.5383C206.621 30.5601 205.003 30.2919 203.471 29.746C202.105 29.2599 200.851 28.505 199.781 27.526C198.755 26.5701 197.947 25.4035 197.413 24.1065C196.843 22.7067 196.56 21.207 196.578 19.6957L196.593 1.21252Z" fill="#202020"/>
<path d="M228.378 22.6455C229.015 23.2281 229.713 23.74 230.46 24.1723C231.183 24.5911 231.943 24.9428 232.73 25.2232C233.643 25.5464 234.606 25.7062 235.574 25.6958C236.104 25.6972 236.631 25.6242 237.141 25.4785C237.621 25.3455 238.074 25.1273 238.478 24.8345C238.868 24.5509 239.187 24.1811 239.41 23.7539C239.652 23.2751 239.772 22.7437 239.758 22.2072C239.769 21.5943 239.561 20.9973 239.173 20.5225C238.734 20.0061 238.211 19.5675 237.627 19.2246C236.928 18.8044 236.199 18.4365 235.446 18.1244C234.63 17.7801 233.799 17.4145 232.946 17.0339C232.092 16.6534 231.261 16.2253 230.449 15.7623C229.654 15.3173 228.921 14.7709 228.268 14.1368C227.627 13.516 227.104 12.7851 226.721 11.9792C226.313 11.0692 226.113 10.0792 226.137 9.08204C226.127 7.93409 226.378 6.79888 226.869 5.76156C227.354 4.74377 228.047 3.8386 228.902 3.10489C229.807 2.33639 230.846 1.74189 231.967 1.35056C233.203 0.917356 234.504 0.70288 235.813 0.716462C237.078 0.697221 238.34 0.863604 239.557 1.21079C240.487 1.47875 241.39 1.83385 242.253 2.2713C243.044 2.68102 243.771 3.20166 244.414 3.81794L242.129 8.07075C241.56 7.60076 240.95 7.18284 240.306 6.82207C239.657 6.47602 238.981 6.18401 238.284 5.94916C237.472 5.6795 236.622 5.54652 235.767 5.55557C235.188 5.55104 234.611 5.6379 234.059 5.81249C233.562 5.96953 233.096 6.21202 232.682 6.52893C232.3 6.82264 231.986 7.19445 231.76 7.61945C231.536 8.04728 231.423 8.52377 231.43 9.00621C231.418 9.60805 231.626 10.1938 232.015 10.6533C232.451 11.1567 232.969 11.5822 233.548 11.9116C234.243 12.3182 234.969 12.6696 235.719 12.9625C236.535 13.2919 237.366 13.6362 238.209 14.0035C239.053 14.3708 239.885 14.789 240.7 15.2454C241.494 15.6865 242.224 16.2357 242.867 16.8775C243.508 17.5198 244.029 18.2716 244.404 19.0978C244.814 20.042 245.014 21.0644 244.989 22.0938C244.996 23.2097 244.777 24.3158 244.345 25.3449C243.916 26.3596 243.282 27.2741 242.482 28.0313C241.618 28.834 240.603 29.4571 239.496 29.8646C238.207 30.3334 236.843 30.5618 235.472 30.5383C234.712 30.5425 233.953 30.4876 233.203 30.3736C232.534 30.2689 231.874 30.1198 231.226 29.9271C230.645 29.7545 230.076 29.5459 229.521 29.3029C229.035 29.0907 228.562 28.849 228.105 28.5799C227.165 28.0418 226.305 27.3768 225.547 26.6032L228.378 22.6455Z" fill="#202020"/>
<path d="M253.731 1.21249H271.006V5.71233H258.982V13.2672H268.679V17.7869H258.982V25.5379H271.632V30.0377H253.731V1.21249Z" fill="#202020"/>
<path d="M131.027 1.21252H136.286V13.4254H149.463V1.21252H154.699V30.0361H149.463V17.9417H136.286V30.0361H131.034L131.027 1.21252Z" fill="#202020"/>
<path d="M187.95 10.1275C187.508 8.93398 186.914 7.80244 186.182 6.76088C185.462 5.74139 184.606 4.82432 183.639 4.03488C182.668 3.23751 181.597 2.56945 180.454 2.04712C179.28 1.51403 178.042 1.13544 176.771 0.920397C176.358 0.851356 175.936 0.805231 175.513 0.769012C175.916 1.03075 176.305 1.31341 176.679 1.61561C177.584 2.35526 178.386 3.2146 179.06 4.17014C180.464 6.17431 181.316 8.51209 181.531 10.9495C181.655 12.2216 181.61 13.5048 181.399 14.7657C181.202 15.9668 180.852 17.138 180.358 18.2508C179.628 19.8957 178.576 21.3775 177.262 22.6086C175.95 23.8395 174.403 24.7945 172.714 25.417C171.52 25.8604 170.272 26.1411 169.004 26.252C167.733 26.3751 166.452 26.3284 165.194 26.1139C164.467 25.9849 163.751 25.7992 163.053 25.5587C163.501 26.0644 163.983 26.5389 164.496 26.9783C165.458 27.8031 166.529 28.4936 167.678 29.0306C168.853 29.5778 170.096 29.9658 171.374 30.1836C174.069 30.6372 176.835 30.3812 179.401 29.4409C180.613 28.9907 181.76 28.3815 182.811 27.6291C184.884 26.1357 186.524 24.1191 187.564 21.7852C188.09 20.598 188.464 19.349 188.677 18.0678C188.899 16.7206 188.945 15.3506 188.816 13.9915C188.699 12.6707 188.408 11.3714 187.95 10.1275Z" fill="#202020"/>
</g>
</svg>
