<svg width="473" height="271" viewBox="0 0 473 271" fill="none" xmlns="http://www.w3.org/2000/svg">
<g clip-path="url(#clip0_634_788)">
<g filter="url(#filter0_d_634_788)">
<rect x="1.05884" y="0.171875" width="471" height="433" rx="5" fill="white"/>
<rect x="1.05884" y="0.171875" width="471" height="433" rx="5" stroke="#DDDDDD" stroke-width="1.072"/>
<rect x="23.5488" y="27.4917" width="426.02" height="378.36" rx="6.4408" fill="white"/>
<path d="M26.1413 38.4917V31.6387H23.6728V30.6017H29.7819V31.6387H27.3135V38.4917H26.1413ZM33.9701 38.5819C32.843 38.5819 31.9075 38.1986 31.1635 37.4322C30.4196 36.6657 30.0477 35.7039 30.0477 34.5467C30.0477 33.3895 30.4196 32.4277 31.1635 31.6612C31.9075 30.8948 32.843 30.5115 33.9701 30.5115C35.0897 30.5115 36.0215 30.8948 36.7654 31.6612C37.5093 32.4277 37.8813 33.3895 37.8813 34.5467C37.8813 35.7039 37.5093 36.6657 36.7654 37.4322C36.0215 38.1986 35.0897 38.5819 33.9701 38.5819ZM32.0202 36.6995C32.5387 37.2631 33.1886 37.5449 33.9701 37.5449C34.7516 37.5449 35.3978 37.2631 35.9088 36.6995C36.4273 36.1285 36.6865 35.4108 36.6865 34.5467C36.6865 33.6826 36.4273 32.9687 35.9088 32.4051C35.3978 31.8341 34.7516 31.5485 33.9701 31.5485C33.1886 31.5485 32.5387 31.8341 32.0202 32.4051C31.5017 32.9687 31.2424 33.6826 31.2424 34.5467C31.2424 35.4108 31.5017 36.1285 32.0202 36.6995ZM40.6373 38.4917V31.6387H38.1689V30.6017H44.278V31.6387H41.8096V38.4917H40.6373ZM49.6967 38.4917L48.9415 36.4854H45.5939L44.8387 38.4917H43.6327L46.7323 30.6017H47.8144L50.914 38.4917H49.6967ZM45.9884 35.4597H48.5583L47.2734 32.067L45.9884 35.4597ZM51.9764 38.4917V30.6017H53.1486V37.4547H56.9921V38.4917H51.9764ZM63.5607 38.5819C62.674 38.5819 61.9602 38.3377 61.4192 37.8492C60.8856 37.3608 60.5963 36.7033 60.5513 35.8767H61.6897C61.7348 36.3952 61.9189 36.8047 62.242 37.1053C62.5726 37.3984 63.0122 37.5449 63.5607 37.5449C64.0792 37.5449 64.4925 37.4435 64.8006 37.2406C65.1162 37.0302 65.274 36.7183 65.274 36.305C65.274 36.012 65.1613 35.7715 64.9358 35.5837C64.7179 35.3883 64.4436 35.2493 64.113 35.1666C63.7824 35.0765 63.4217 34.9713 63.031 34.851C62.6477 34.7308 62.2908 34.6031 61.9602 34.4678C61.6296 34.325 61.3515 34.0996 61.1261 33.7915C60.9082 33.4759 60.7992 33.0927 60.7992 32.6418C60.7992 32.0106 61.0472 31.4997 61.5431 31.1089C62.0466 30.7107 62.6966 30.5115 63.4931 30.5115C64.2971 30.5115 64.9546 30.7295 65.4656 31.1653C65.9766 31.5936 66.2583 32.1684 66.3109 32.8898H65.1725C65.135 32.484 64.9659 32.1609 64.6653 31.9205C64.3647 31.6725 63.974 31.5485 63.4931 31.5485C63.0197 31.5485 62.6477 31.65 62.3772 31.8528C62.1067 32.0482 61.9715 32.3112 61.9715 32.6418C61.9715 32.8973 62.0541 33.1115 62.2194 33.2843C62.3847 33.4571 62.5989 33.5886 62.8619 33.6788C63.1249 33.769 63.4179 33.8516 63.7411 33.9268C64.0642 34.0019 64.3835 34.0921 64.6991 34.1973C65.0222 34.3025 65.3153 34.434 65.5783 34.5918C65.8413 34.7421 66.0555 34.9638 66.2208 35.2568C66.3861 35.5423 66.4687 35.888 66.4687 36.2938C66.4687 37.0001 66.1982 37.5599 65.6572 37.9732C65.1237 38.379 64.4249 38.5819 63.5607 38.5819ZM69.4587 38.4917V31.6387H66.9902V30.6017H73.0993V31.6387H70.6309V38.4917H69.4587ZM77.2875 38.5819C76.1604 38.5819 75.2249 38.1986 74.4809 37.4322C73.737 36.6657 73.3651 35.7039 73.3651 34.5467C73.3651 33.3895 73.737 32.4277 74.4809 31.6612C75.2249 30.8948 76.1604 30.5115 77.2875 30.5115C78.4072 30.5115 79.3389 30.8948 80.0828 31.6612C80.8267 32.4277 81.1987 33.3895 81.1987 34.5467C81.1987 35.7039 80.8267 36.6657 80.0828 37.4322C79.3389 38.1986 78.4072 38.5819 77.2875 38.5819ZM75.3376 36.6995C75.8561 37.2631 76.506 37.5449 77.2875 37.5449C78.069 37.5449 78.7152 37.2631 79.2262 36.6995C79.7447 36.1285 80.0039 35.4108 80.0039 34.5467C80.0039 33.6826 79.7447 32.9687 79.2262 32.4051C78.7152 31.8341 78.069 31.5485 77.2875 31.5485C76.506 31.5485 75.8561 31.8341 75.3376 32.4051C74.8191 32.9687 74.5598 33.6826 74.5598 34.5467C74.5598 35.4108 74.8191 36.1285 75.3376 36.6995ZM86.1741 38.5819C85.092 38.5819 84.179 38.2325 83.4351 37.5336C82.6912 36.8273 82.3192 35.8316 82.3192 34.5467C82.3192 33.6826 82.5033 32.9387 82.8715 32.315C83.2397 31.6913 83.7094 31.2367 84.2805 30.9511C84.8515 30.6581 85.4827 30.5115 86.1741 30.5115C87.0683 30.5115 87.8347 30.7558 88.4734 31.2442C89.1197 31.7326 89.4954 32.3638 89.6006 33.1378H88.372C88.3044 32.6719 88.0601 32.2924 87.6393 31.9994C87.2261 31.6988 86.7339 31.5485 86.1628 31.5485C85.3738 31.5485 84.7351 31.8115 84.2466 32.3375C83.7657 32.856 83.5253 33.5924 83.5253 34.5467C83.5253 35.501 83.7657 36.2412 84.2466 36.7672C84.7351 37.2857 85.3738 37.5449 86.1628 37.5449C86.7489 37.5449 87.2524 37.3946 87.6732 37.094C88.094 36.7935 88.3344 36.414 88.3945 35.9556H89.578C89.4954 36.7296 89.1347 37.3608 88.496 37.8492C87.8648 38.3377 87.0908 38.5819 86.1741 38.5819ZM95.9894 38.4917L93.2956 34.6031L92.1572 35.8091V38.4917H90.9737V30.6017H92.1572V34.2311L95.6175 30.6017H97.094L94.0958 33.7577L97.4209 38.4917H95.9894ZM103.607 38.4917L100.665 30.6017H101.848L104.181 37.0828L106.526 30.6017H107.709L104.767 38.4917H103.607ZM113.107 38.4917L112.352 36.4854H109.004L108.249 38.4917H107.043L110.143 30.6017H111.225L114.324 38.4917H113.107ZM109.399 35.4597H111.969L110.684 32.067L109.399 35.4597ZM115.387 38.4917V30.6017H116.559V37.4547H120.403V38.4917H115.387ZM126.32 37.8267C125.772 38.3301 125.039 38.5819 124.122 38.5819C123.206 38.5819 122.473 38.3301 121.924 37.8267C121.376 37.3157 121.102 36.6169 121.102 35.7302V30.6017H122.229V35.764C122.229 36.3201 122.402 36.7559 122.747 37.0715C123.093 37.3796 123.551 37.5336 124.122 37.5336C124.701 37.5336 125.163 37.3796 125.509 37.0715C125.854 36.7559 126.027 36.3201 126.027 35.764V30.6017H127.154V35.7302C127.154 36.6169 126.876 37.3157 126.32 37.8267ZM128.837 38.4917V30.6017H133.898V31.6387H130.009V33.9042H133.154V34.9412H130.009V37.4547H134.022V38.4917H128.837Z" fill="#7F7F7F"/>
<path d="M35.2292 67.9454C35.2292 69.1176 34.8385 70.0875 34.057 70.855C33.2755 71.6086 32.2289 72.0691 30.9171 72.2366V74.0996L28.6773 74.0786V72.2366C27.3237 72.0551 26.2422 71.5179 25.4328 70.6248C24.6234 69.7316 24.1838 68.6013 24.114 67.2337H26.7724C26.8422 68.057 27.1423 68.7129 27.6726 69.2013C28.2028 69.6758 28.9006 69.913 29.7658 69.913C30.5752 69.913 31.2171 69.7526 31.6916 69.4316C32.18 69.0967 32.4243 68.6152 32.4243 67.9872C32.4243 67.5686 32.2777 67.2197 31.9847 66.9406C31.7056 66.6615 31.3288 66.4452 30.8543 66.2917C30.3938 66.1382 29.8844 65.9986 29.3262 65.8731C28.768 65.7335 28.2098 65.566 27.6516 65.3707C27.0934 65.1613 26.5771 64.9171 26.1026 64.638C25.6421 64.345 25.2653 63.9263 24.9722 63.3821C24.6931 62.8239 24.5536 62.168 24.5536 61.4144C24.5536 60.3399 24.9304 59.4398 25.684 58.7141C26.4375 57.9884 27.4353 57.5489 28.6773 57.3953V55.6161H30.9171V57.4581C32.1033 57.6675 33.0522 58.1629 33.7639 58.9444C34.4756 59.7258 34.8594 60.6957 34.9152 61.854H32.2777C32.2079 61.2121 31.9358 60.6957 31.4614 60.305C30.9869 59.9142 30.3659 59.7189 29.5984 59.7189C28.8727 59.7189 28.3005 59.8724 27.8819 60.1794C27.4632 60.4864 27.2539 60.8981 27.2539 61.4144C27.2539 61.847 27.4004 62.2098 27.6935 62.5029C27.9865 62.782 28.3633 62.9983 28.8238 63.1518C29.2983 63.2914 29.8216 63.4239 30.3938 63.5495C30.9659 63.6612 31.5311 63.8147 32.0893 64.01C32.6615 64.1915 33.1778 64.4287 33.6383 64.7218C34.1128 65.0009 34.4966 65.4195 34.7896 65.9777C35.0827 66.522 35.2292 67.1778 35.2292 67.9454ZM42.213 57.5V72.1528H39.4499V61.3725C39.3243 61.554 39.0871 61.6935 38.7382 61.7912C38.3893 61.8889 38.0474 61.9377 37.7125 61.9377H36.5612V59.5514H37.6079C38.2079 59.5514 38.6615 59.4049 38.9685 59.1118C39.2894 58.8048 39.4918 58.2675 39.5755 57.5H42.213ZM49.4727 72.3203C45.9421 72.3203 44.1768 69.9898 44.1768 65.3288V64.324C44.1768 59.663 45.9421 57.3325 49.4727 57.3325H50.31C53.8546 57.3325 55.6269 59.663 55.6269 64.324V65.3288C55.6269 69.9898 53.8546 72.3203 50.31 72.3203H49.4727ZM49.5983 69.913H50.1844C51.0217 69.913 51.6776 69.5921 52.1521 68.9501C52.6266 68.2943 52.8638 67.3314 52.8638 66.0614V63.5914C52.8638 62.3215 52.6266 61.3586 52.1521 60.7027C51.6916 60.0468 51.0357 59.7189 50.1844 59.7189H49.5983C48.761 59.7189 48.1051 60.0468 47.6306 60.7027C47.1701 61.3586 46.9399 62.3215 46.9399 63.5914V66.0614C46.9399 67.3314 47.1701 68.2943 47.6306 68.9501C48.1051 69.5921 48.761 69.913 49.5983 69.913ZM56.8784 72.9692H57.6529C58.2809 72.9692 58.5949 72.5157 58.5949 71.6086V69.3688H61.1487V71.8388C61.1487 72.8297 60.8696 73.6042 60.3114 74.1624C59.7671 74.7206 59.0066 74.9997 58.0297 74.9997H56.8784V72.9692ZM63.8169 72.1528C63.8169 70.7852 63.9635 69.5432 64.2565 68.4268C64.5635 67.2965 65.1148 66.0963 65.9102 64.8264L69.0292 59.8863H61.305V57.5H72.0853V59.677L68.2756 65.7475C67.6197 66.7801 67.1731 67.7849 66.9359 68.7617C66.6987 69.7246 66.5731 70.855 66.5591 72.1528H63.8169ZM78.0694 72.3203C76.5204 72.3203 75.2226 71.8877 74.176 71.0225C73.1433 70.1433 72.627 68.9781 72.627 67.5267H75.3063C75.3063 68.2803 75.5645 68.8664 76.0808 69.2851C76.6111 69.7037 77.274 69.913 78.0694 69.913C78.8788 69.913 79.5208 69.7246 79.9952 69.3479C80.4837 68.9711 80.7279 68.4547 80.7279 67.7988C80.7279 67.1569 80.4837 66.6545 79.9952 66.2917C79.5208 65.9289 78.8788 65.7475 78.0694 65.7475H76.7297V63.4449H78.0276C78.6835 63.4449 79.2068 63.2704 79.5975 62.9216C79.9883 62.5587 80.1836 62.0982 80.1836 61.54C80.1836 60.9818 79.9743 60.5422 79.5556 60.2212C79.137 59.8863 78.5788 59.7189 77.881 59.7189C77.1972 59.7189 76.646 59.9073 76.2274 60.284C75.8087 60.6469 75.5924 61.1841 75.5785 61.8959H72.9619C72.9758 60.5143 73.4643 59.4119 74.4272 58.5885C75.3901 57.7512 76.5623 57.3325 77.9438 57.3325C79.3393 57.3325 80.5046 57.7163 81.4396 58.4838C82.3885 59.2374 82.863 60.1654 82.863 61.2679C82.863 61.9517 82.6955 62.5797 82.3606 63.1518C82.0257 63.71 81.5791 64.1356 81.0209 64.4287C81.7605 64.6938 82.3536 65.1334 82.8002 65.7475C83.2468 66.3475 83.47 67.0523 83.47 67.8616C83.47 69.2292 82.9467 70.3177 81.9001 71.1271C80.8535 71.9226 79.5766 72.3203 78.0694 72.3203ZM84.656 62.5866C84.6281 60.9678 85.0816 59.691 86.0166 58.756C86.9656 57.807 88.2425 57.3325 89.8473 57.3325C91.3684 57.3325 92.5964 57.7512 93.5314 58.5885C94.4804 59.4119 94.9548 60.5073 94.9548 61.8749C94.9548 63.8565 93.7966 65.4195 91.48 66.5638L89.2193 67.6942C87.9913 68.3361 87.3772 69.0199 87.3772 69.7456H94.9548V72.1528H84.656L84.6351 70.1224C84.6351 69.0618 84.977 68.1407 85.6608 67.3593C86.3446 66.5638 87.133 65.9498 88.0262 65.5172L90.3706 64.345C91.5707 63.7589 92.1708 62.9285 92.1708 61.854C92.1708 61.1702 91.9615 60.6259 91.5428 60.2212C91.1242 59.8165 90.559 59.6142 89.8473 59.6142C89.0658 59.6142 88.4588 59.8863 88.0262 60.4306C87.6075 60.9609 87.4121 61.6796 87.44 62.5866H84.656ZM96.6355 69.4316H99.4195V72.1528H96.6355V69.4316ZM107.006 72.3203C105.457 72.3203 104.159 71.8877 103.113 71.0225C102.08 70.1433 101.564 68.9781 101.564 67.5267H104.243C104.243 68.2803 104.501 68.8664 105.018 69.2851C105.548 69.7037 106.211 69.913 107.006 69.913C107.816 69.913 108.458 69.7246 108.932 69.3479C109.421 68.9711 109.665 68.4547 109.665 67.7988C109.665 67.1569 109.421 66.6545 108.932 66.2917C108.458 65.9289 107.816 65.7475 107.006 65.7475H105.667V63.4449H106.964C107.62 63.4449 108.144 63.2704 108.534 62.9216C108.925 62.5587 109.121 62.0982 109.121 61.54C109.121 60.9818 108.911 60.5422 108.493 60.2212C108.074 59.8863 107.516 59.7189 106.818 59.7189C106.134 59.7189 105.583 59.9073 105.164 60.284C104.746 60.6469 104.529 61.1841 104.515 61.8959H101.899C101.913 60.5143 102.401 59.4119 103.364 58.5885C104.327 57.7512 105.499 57.3325 106.881 57.3325C108.276 57.3325 109.441 57.7163 110.376 58.4838C111.325 59.2374 111.8 60.1654 111.8 61.2679C111.8 61.9517 111.632 62.5797 111.297 63.1518C110.963 63.71 110.516 64.1356 109.958 64.4287C110.697 64.6938 111.291 65.1334 111.737 65.7475C112.184 66.3475 112.407 67.0523 112.407 67.8616C112.407 69.2292 111.884 70.3177 110.837 71.1271C109.79 71.9226 108.513 72.3203 107.006 72.3203ZM123.256 71.1062C122.237 71.9156 120.939 72.3203 119.362 72.3203C117.786 72.3203 116.481 71.9156 115.448 71.1062C114.415 70.2829 113.899 69.2013 113.899 67.8616C113.899 67.0383 114.129 66.3126 114.59 65.6847C115.05 65.0567 115.65 64.5822 116.39 64.2612C115.832 63.9263 115.378 63.5007 115.029 62.9844C114.694 62.468 114.527 61.8959 114.527 61.2679C114.527 60.1096 114.974 59.1676 115.867 58.442C116.774 57.7024 117.939 57.3325 119.362 57.3325C120.786 57.3325 121.944 57.7024 122.837 58.442C123.744 59.1676 124.198 60.1096 124.198 61.2679C124.198 61.8959 124.023 62.468 123.675 62.9844C123.34 63.5007 122.886 63.9263 122.314 64.2612C123.081 64.5683 123.689 65.0357 124.135 65.6637C124.582 66.2917 124.805 67.0243 124.805 67.8616C124.805 69.2013 124.289 70.2829 123.256 71.1062ZM117.73 62.6913C118.134 63.0123 118.679 63.1727 119.362 63.1727C120.046 63.1727 120.59 63.0123 120.995 62.6913C121.414 62.3703 121.623 61.9307 121.623 61.3725C121.623 60.8143 121.414 60.3748 120.995 60.0538C120.59 59.7328 120.046 59.5723 119.362 59.5723C118.679 59.5723 118.134 59.7328 117.73 60.0538C117.325 60.3748 117.123 60.8143 117.123 61.3725C117.123 61.9307 117.325 62.3703 117.73 62.6913ZM117.353 69.3688C117.855 69.7456 118.525 69.934 119.362 69.934C120.2 69.934 120.863 69.7456 121.351 69.3688C121.839 68.992 122.084 68.4687 122.084 67.7988C122.084 67.143 121.839 66.6196 121.351 66.2289C120.863 65.8382 120.2 65.6428 119.362 65.6428C118.525 65.6428 117.855 65.8382 117.353 66.2289C116.851 66.6196 116.599 67.143 116.599 67.7988C116.599 68.4547 116.851 68.9781 117.353 69.3688Z" fill="black"/>
<path d="M27.2674 88.4834L30.986 94.9242H23.5488L27.2674 88.4834Z" fill="#63BA23"/>
<path d="M43.1978 92.4374V93.79H40.6086V96.3663H39.256V93.79H36.6797V92.4374H39.256V89.8611H40.6086V92.4374H43.1978ZM50.9867 94.6144C50.9867 95.3358 50.7462 95.9326 50.2653 96.405C49.7844 96.8687 49.1403 97.1521 48.333 97.2551V98.4016L46.9547 98.3887V97.2551C46.1217 97.1435 45.4561 96.8129 44.9581 96.2633C44.46 95.7136 44.1895 95.018 44.1465 94.1764H45.7825C45.8254 94.6831 46.0101 95.0867 46.3364 95.3873C46.6627 95.6793 47.0921 95.8253 47.6246 95.8253C48.1226 95.8253 48.5177 95.7265 48.8097 95.529C49.1102 95.3229 49.2605 95.0266 49.2605 94.6402C49.2605 94.3825 49.1703 94.1678 48.99 93.9961C48.8182 93.8243 48.5864 93.6912 48.2944 93.5968C48.011 93.5023 47.6975 93.4164 47.354 93.3391C47.0105 93.2533 46.667 93.1502 46.3235 93.03C45.98 92.9012 45.6623 92.7509 45.3703 92.5791C45.0869 92.3988 44.855 92.1411 44.6747 91.8062C44.5029 91.4627 44.417 91.0591 44.417 90.5954C44.417 89.9341 44.6489 89.3802 45.1126 88.9336C45.5764 88.4871 46.1904 88.2165 46.9547 88.1221V87.0271H48.333V88.1607C49.063 88.2895 49.647 88.5944 50.0849 89.0753C50.5229 89.5562 50.7591 90.1531 50.7934 90.8659H49.1703C49.1274 90.4708 48.9599 90.1531 48.668 89.9126C48.376 89.6722 47.9938 89.5519 47.5215 89.5519C47.0749 89.5519 46.7228 89.6464 46.4652 89.8353C46.2076 90.0243 46.0788 90.2776 46.0788 90.5954C46.0788 90.8616 46.1689 91.0849 46.3493 91.2652C46.5296 91.4369 46.7615 91.5701 47.0449 91.6645C47.3369 91.7504 47.6589 91.832 48.011 91.9093C48.3631 91.978 48.7109 92.0724 49.0544 92.1927C49.4065 92.3043 49.7243 92.4503 50.0076 92.6306C50.2996 92.8024 50.5358 93.06 50.7161 93.4035C50.8965 93.7385 50.9867 94.1421 50.9867 94.6144ZM55.104 97.3067C54.2367 97.3067 53.5024 97.0447 52.9013 96.5209C52.3001 95.997 51.9781 95.3401 51.9352 94.55H53.5454C53.5969 94.9536 53.7601 95.2671 54.0349 95.4904C54.3097 95.7136 54.6661 95.8253 55.104 95.8253C55.6193 95.8253 56.0315 95.6793 56.3407 95.3873C56.6498 95.0953 56.8044 94.7003 56.8044 94.2022C56.8044 93.7041 56.6498 93.3048 56.3407 93.0042C56.0315 92.6951 55.6236 92.5405 55.1169 92.5405C54.3612 92.5405 53.8416 92.8067 53.5582 93.3391H52.0897L52.8369 88.1865H57.8993V89.655H54.0993L53.7901 91.6903C54.2109 91.3124 54.7605 91.1235 55.439 91.1235C56.3235 91.1235 57.0577 91.4198 57.6417 92.0123C58.2257 92.5963 58.5177 93.3263 58.5177 94.2022C58.5177 95.1039 58.1956 95.8468 57.5515 96.4307C56.9075 97.0147 56.0916 97.3067 55.104 97.3067ZM62.4362 88.1865V97.2036H60.7358V90.5696C60.6585 90.6812 60.5125 90.7671 60.2978 90.8272C60.0831 90.8873 59.8727 90.9174 59.6666 90.9174H58.9581V89.4489H59.6022C59.9715 89.4489 60.2506 89.3587 60.4395 89.1784C60.6371 88.9894 60.7616 88.6588 60.8131 88.1865H62.4362ZM63.9292 95.529H65.6425V97.2036H63.9292V95.529ZM70.118 97.3067C67.9453 97.3067 66.859 95.8725 66.859 93.0042V92.3859C66.859 89.5176 67.9453 88.0834 70.118 88.0834H70.6333C72.8146 88.0834 73.9052 89.5176 73.9052 92.3859V93.0042C73.9052 95.8725 72.8146 97.3067 70.6333 97.3067H70.118ZM70.1953 95.8253H70.556C71.0713 95.8253 71.4749 95.6278 71.7669 95.2327C72.0589 94.8291 72.2049 94.2366 72.2049 93.4551V91.935C72.2049 91.1536 72.0589 90.561 71.7669 90.1574C71.4835 89.7538 71.0799 89.5519 70.556 89.5519H70.1953C69.6801 89.5519 69.2764 89.7538 68.9845 90.1574C68.7011 90.561 68.5594 91.1536 68.5594 91.935V93.4551C68.5594 94.2366 68.7011 94.8291 68.9845 95.2327C69.2764 95.6278 69.6801 95.8253 70.1953 95.8253ZM78.1148 94.2022C77.1787 94.2022 76.4187 93.9145 75.8348 93.3391C75.2508 92.7638 74.9588 92.0381 74.9588 91.1621C74.9588 90.2862 75.2766 89.5562 75.912 88.9723C76.5561 88.3797 77.3505 88.0834 78.2951 88.0834C79.3944 88.0834 80.2531 88.4828 80.8715 89.2814C81.4898 90.0715 81.7989 91.102 81.7989 92.373C81.7989 93.9188 81.464 95.1297 80.7942 96.0056C80.1329 96.873 79.2527 97.3067 78.1534 97.3067C77.2517 97.3067 76.5003 97.0662 75.8992 96.5853C75.3066 96.0958 74.9588 95.4818 74.8558 94.7432H76.4531C76.5218 95.0867 76.7064 95.3658 77.007 95.5805C77.3076 95.7866 77.6725 95.8897 78.1019 95.8897C78.6945 95.8897 79.184 95.6278 79.5704 95.1039C79.9569 94.5801 80.1716 93.9188 80.2145 93.1201C80.0256 93.4293 79.7293 93.6869 79.3257 93.893C78.9306 94.0991 78.527 94.2022 78.1148 94.2022ZM79.4287 90.0028C79.1282 89.7022 78.7417 89.5519 78.2694 89.5519C77.7971 89.5519 77.4106 89.7022 77.11 90.0028C76.8181 90.3034 76.6721 90.6898 76.6721 91.1621C76.6721 91.6259 76.8181 92.0037 77.11 92.2957C77.4106 92.5877 77.7971 92.7337 78.2694 92.7337C78.7503 92.7337 79.141 92.5877 79.4416 92.2957C79.7422 92.0037 79.8925 91.6259 79.8925 91.1621C79.8925 90.6898 79.7379 90.3034 79.4287 90.0028Z" fill="#63BA23"/>
<path d="M90.9772 98.7365C89.5774 97.0705 88.8775 95.1211 88.8775 92.8883C88.8775 90.6555 89.5774 88.706 90.9772 87.04L92.0592 87.8516C90.9257 89.3802 90.3589 91.0591 90.3589 92.8883C90.3589 94.7175 90.9257 96.3964 92.0592 97.925L90.9772 98.7365ZM95.7819 97.3067C93.6092 97.3067 92.5229 95.8725 92.5229 93.0042V92.3859C92.5229 89.5176 93.6092 88.0834 95.7819 88.0834H96.2972C98.4785 88.0834 99.5691 89.5176 99.5691 92.3859V93.0042C99.5691 95.8725 98.4785 97.3067 96.2972 97.3067H95.7819ZM95.8592 95.8253H96.2199C96.7352 95.8253 97.1388 95.6278 97.4308 95.2327C97.7228 94.8291 97.8687 94.2366 97.8687 93.4551V91.935C97.8687 91.1536 97.7228 90.561 97.4308 90.1574C97.1474 89.7538 96.7438 89.5519 96.2199 89.5519H95.8592C95.3439 89.5519 94.9403 89.7538 94.6483 90.1574C94.3649 90.561 94.2233 91.1536 94.2233 91.935V93.4551C94.2233 94.2366 94.3649 94.8291 94.6483 95.2327C94.9403 95.6278 95.3439 95.8253 95.8592 95.8253ZM100.764 95.529H102.478V97.2036H100.764V95.529ZM103.759 91.3167C103.741 90.3205 104.02 89.5348 104.596 88.9594C105.18 88.3754 105.966 88.0834 106.953 88.0834C107.889 88.0834 108.645 88.3411 109.22 88.8563C109.804 89.363 110.096 90.0371 110.096 90.8787C110.096 92.0982 109.384 93.06 107.958 93.7642L106.567 94.4598C105.811 94.8549 105.433 95.2757 105.433 95.7222H110.096V97.2036H103.759L103.746 95.9541C103.746 95.3014 103.956 94.7346 104.377 94.2537C104.798 93.7642 105.283 93.3864 105.832 93.1201L107.275 92.3988C108.014 92.0381 108.383 91.5271 108.383 90.8659C108.383 90.4451 108.254 90.1101 107.997 89.8611C107.739 89.6121 107.391 89.4875 106.953 89.4875C106.472 89.4875 106.099 89.655 105.832 89.9899C105.575 90.3162 105.455 90.7585 105.472 91.3167H103.759ZM116.354 96.5595C115.727 97.0576 114.928 97.3067 113.958 97.3067C112.987 97.3067 112.184 97.0576 111.549 96.5595C110.913 96.0529 110.596 95.3873 110.596 94.5629C110.596 94.0562 110.737 93.6096 111.021 93.2232C111.304 92.8367 111.673 92.5448 112.128 92.3472C111.785 92.1411 111.506 91.8792 111.291 91.5615C111.085 91.2437 110.982 90.8916 110.982 90.5052C110.982 89.7924 111.257 89.2127 111.806 88.7662C112.365 88.311 113.082 88.0834 113.958 88.0834C114.834 88.0834 115.546 88.311 116.096 88.7662C116.654 89.2127 116.933 89.7924 116.933 90.5052C116.933 90.8916 116.826 91.2437 116.611 91.5615C116.405 91.8792 116.126 92.1411 115.774 92.3472C116.246 92.5362 116.62 92.8239 116.895 93.2103C117.169 93.5968 117.307 94.0476 117.307 94.5629C117.307 95.3873 116.989 96.0529 116.354 96.5595ZM112.953 91.3811C113.202 91.5786 113.537 91.6774 113.958 91.6774C114.378 91.6774 114.713 91.5786 114.962 91.3811C115.22 91.1836 115.349 90.9131 115.349 90.5696C115.349 90.2261 115.22 89.9556 114.962 89.758C114.713 89.5605 114.378 89.4618 113.958 89.4618C113.537 89.4618 113.202 89.5605 112.953 89.758C112.704 89.9556 112.579 90.2261 112.579 90.5696C112.579 90.9131 112.704 91.1836 112.953 91.3811ZM112.721 95.4904C113.03 95.7222 113.442 95.8382 113.958 95.8382C114.473 95.8382 114.881 95.7222 115.181 95.4904C115.482 95.2585 115.632 94.9365 115.632 94.5242C115.632 94.1206 115.482 93.7986 115.181 93.5581C114.881 93.3177 114.473 93.1974 113.958 93.1974C113.442 93.1974 113.03 93.3177 112.721 93.5581C112.412 93.7986 112.257 94.1206 112.257 94.5242C112.257 94.9279 112.412 95.2499 112.721 95.4904ZM121.676 91.613C121.315 92.008 120.847 92.2056 120.272 92.2056C119.697 92.2056 119.224 92.008 118.855 91.613C118.494 91.218 118.314 90.7285 118.314 90.1445C118.314 89.5605 118.494 89.071 118.855 88.676C119.224 88.281 119.697 88.0834 120.272 88.0834C120.847 88.0834 121.315 88.281 121.676 88.676C122.045 89.071 122.23 89.5605 122.23 90.1445C122.23 90.7285 122.045 91.218 121.676 91.613ZM118.533 97.2036L125.077 88.1865H126.481L119.937 97.2036H118.533ZM120.272 91.175C120.53 91.175 120.736 91.0806 120.89 90.8916C121.054 90.6941 121.135 90.4451 121.135 90.1445C121.135 89.8439 121.054 89.5992 120.89 89.4102C120.736 89.2127 120.53 89.114 120.272 89.114C120.023 89.114 119.817 89.2127 119.654 89.4102C119.499 89.5992 119.422 89.8439 119.422 90.1445C119.422 90.4451 119.499 90.6941 119.654 90.8916C119.817 91.0806 120.023 91.175 120.272 91.175ZM126.159 96.7141C125.798 97.1091 125.33 97.3067 124.755 97.3067C124.179 97.3067 123.707 97.1091 123.338 96.7141C122.969 96.3191 122.784 95.8296 122.784 95.2456C122.784 94.6616 122.969 94.1721 123.338 93.7771C123.707 93.3821 124.179 93.1846 124.755 93.1846C125.33 93.1846 125.798 93.3821 126.159 93.7771C126.528 94.1721 126.713 94.6616 126.713 95.2456C126.713 95.8296 126.528 96.3191 126.159 96.7141ZM124.137 95.9927C124.291 96.1817 124.497 96.2761 124.755 96.2761C125.012 96.2761 125.219 96.1817 125.373 95.9927C125.536 95.7952 125.618 95.5462 125.618 95.2456C125.618 94.945 125.536 94.7003 125.373 94.5114C125.219 94.3138 125.012 94.2151 124.755 94.2151C124.497 94.2151 124.291 94.3138 124.137 94.5114C123.982 94.7003 123.905 94.945 123.905 95.2456C123.905 95.5462 123.982 95.7952 124.137 95.9927ZM128.335 98.7365L127.253 97.925C128.387 96.3964 128.954 94.7175 128.954 92.8883C128.954 91.0591 128.387 89.3802 127.253 87.8516L128.335 87.04C129.735 88.706 130.435 90.6555 130.435 92.8883C130.435 95.1211 129.735 97.0705 128.335 98.7365Z" fill="#63BA23"/>
<path d="M139.13 97.2036V89.655H136.399V88.1865H143.548V89.655H140.83V97.2036H139.13ZM148.423 96.3663C147.788 96.9932 146.976 97.3067 145.989 97.3067C145.001 97.3067 144.185 96.9932 143.541 96.3663C142.906 95.7308 142.588 94.9279 142.588 93.9574C142.588 92.987 142.906 92.1884 143.541 91.5615C144.185 90.926 145.001 90.6082 145.989 90.6082C146.976 90.6082 147.788 90.926 148.423 91.5615C149.059 92.1884 149.376 92.987 149.376 93.9574C149.376 94.9279 149.059 95.7308 148.423 96.3663ZM145.989 95.9412C146.521 95.9412 146.95 95.7566 147.277 95.3873C147.612 95.018 147.779 94.5414 147.779 93.9574C147.779 93.3735 147.612 92.8969 147.277 92.5276C146.95 92.1583 146.521 91.9737 145.989 91.9737C145.448 91.9737 145.01 92.1583 144.675 92.5276C144.348 92.8969 144.185 93.3735 144.185 93.9574C144.185 94.5414 144.348 95.018 144.675 95.3873C145.01 95.7566 145.448 95.9412 145.989 95.9412ZM152.932 97.3067C151.97 97.3067 151.214 97.0018 150.665 96.3921C150.115 95.7738 149.84 94.9622 149.84 93.9574C149.84 92.9527 150.115 92.1454 150.665 91.5357C151.214 90.9174 151.961 90.6082 152.906 90.6082C153.756 90.6082 154.392 90.9045 154.813 91.4971V87.9289H156.384V97.2036H154.813V96.3921C154.624 96.6755 154.362 96.8987 154.027 97.0619C153.692 97.2251 153.327 97.3067 152.932 97.3067ZM151.888 95.4002C152.206 95.7609 152.631 95.9412 153.164 95.9412C153.696 95.9412 154.121 95.7609 154.439 95.4002C154.757 95.0395 154.916 94.5586 154.916 93.9574C154.916 93.3563 154.757 92.8754 154.439 92.5147C154.121 92.154 153.696 91.9737 153.164 91.9737C152.631 91.9737 152.206 92.154 151.888 92.5147C151.571 92.8754 151.412 93.3563 151.412 93.9574C151.412 94.5586 151.571 95.0395 151.888 95.4002ZM160.27 90.6082C161.103 90.6082 161.777 90.8315 162.292 91.2781C162.816 91.7161 163.078 92.3 163.078 93.03V97.2036H161.519V96.2375C161.382 96.5638 161.137 96.8258 160.785 97.0233C160.442 97.2122 160.038 97.3067 159.574 97.3067C158.939 97.3067 158.419 97.1263 158.016 96.7656C157.612 96.3964 157.41 95.9283 157.41 95.3615C157.41 94.7346 157.633 94.2366 158.08 93.8673C158.527 93.498 159.115 93.3134 159.845 93.3134H161.043C161.361 93.3134 161.519 93.1674 161.519 92.8754C161.519 92.5576 161.399 92.3 161.159 92.1025C160.927 91.8964 160.605 91.7933 160.193 91.7933C159.789 91.7933 159.463 91.9007 159.214 92.1154C158.973 92.3301 158.844 92.592 158.827 92.9012H157.41C157.453 92.2399 157.732 91.6946 158.248 91.2652C158.771 90.8272 159.445 90.6082 160.27 90.6082ZM159.948 96.1344C160.437 96.1344 160.82 95.9799 161.094 95.6707C161.378 95.3615 161.519 94.9579 161.519 94.4598V94.3568H160.064C159.729 94.3568 159.458 94.4427 159.252 94.6144C159.046 94.7862 158.943 95.0137 158.943 95.2971C158.943 95.5462 159.033 95.748 159.214 95.9026C159.403 96.0572 159.647 96.1344 159.948 96.1344ZM169.492 90.7113L167.225 96.8945L166.22 99.8315H164.713L165.627 97.2036L163.257 90.7113H164.867L166.375 95.1683L167.869 90.7113H169.492Z" fill="#63BA23"/>
<path d="M89.0899 234.966L73.8222 239.661C71.1192 240.493 69.2747 242.99 69.2747 245.818V309.922H466.062V192.504C466.062 188.355 462.197 185.288 458.157 186.232L439.964 190.48L411.725 199.131C410.046 199.645 408.65 200.823 407.859 202.391L386.332 245.111C384.242 249.259 378.583 249.898 375.62 246.322L355.668 222.24C353.927 220.138 351.05 219.362 348.489 220.303L325.413 228.775C324.162 229.235 322.798 229.294 321.511 228.946L297.9 222.557C296.046 222.056 294.513 220.753 293.718 219.005L267.491 161.307C265.856 157.708 261.394 156.419 258.091 158.59L237.975 171.809C237.135 172.361 236.177 172.709 235.178 172.825L209.722 175.769C208.17 175.948 206.736 176.686 205.687 177.844L184.069 201.721C180.949 205.167 175.318 204.274 173.417 200.033L154.363 157.52C151.991 152.229 144.384 152.521 142.424 157.977L119.266 222.444C118.595 224.312 117.1 225.766 115.214 226.385L89.0899 234.966Z" fill="url(#paint0_linear_634_788)"/>
<path d="M69.2747 241.06L89.0899 234.966L115.655 226.763C117.569 226.172 119.1 224.723 119.795 222.844L143.019 160.088C144.993 154.754 152.407 154.41 154.867 159.538L173.818 199.043C175.779 203.131 181.237 203.967 184.332 200.655L205.756 177.724C206.875 176.526 208.408 175.8 210.044 175.693L234.625 174.09C235.847 174.01 237.021 173.584 238.009 172.861L258.914 157.568C262.271 155.112 267.041 156.435 268.654 160.269L293.269 218.804C294.04 220.638 295.616 222.013 297.539 222.528L321.616 228.98C322.838 229.307 324.129 229.267 325.328 228.866L348.518 221.101C350.993 220.272 353.723 221.019 355.432 222.991L375.046 245.638C377.954 248.995 383.307 248.471 385.508 244.614L409.627 202.365C410.412 200.99 411.675 199.953 413.176 199.45L439.964 190.48L466.062 184.386" stroke="#63BA23" stroke-width="1.6102"/>
<path d="M28.9301 274.412C28.9301 274.959 28.7369 275.404 28.3504 275.745C27.9704 276.087 27.4648 276.289 26.8336 276.354V277.204L25.9931 277.194V276.344C25.3619 276.26 24.8563 276.016 24.4763 275.61C24.0963 275.204 23.8902 274.686 23.858 274.054H24.8338C24.8724 274.499 25.0302 274.85 25.3072 275.108C25.5906 275.359 25.9673 275.484 26.4375 275.484C26.8819 275.484 27.2362 275.397 27.5003 275.224C27.7708 275.043 27.906 274.776 27.906 274.422C27.906 274.17 27.8094 273.964 27.6162 273.803C27.4294 273.636 27.1943 273.517 26.9109 273.446C26.6275 273.369 26.3184 273.278 25.9835 273.175C25.655 273.072 25.349 272.963 25.0656 272.847C24.7822 272.724 24.5439 272.531 24.3507 272.267C24.1639 271.997 24.0705 271.668 24.0705 271.282C24.0705 270.799 24.2444 270.393 24.5922 270.064C24.9465 269.736 25.4134 269.539 25.9931 269.475V268.664H26.8336V269.485C27.4004 269.562 27.8577 269.781 28.2055 270.142C28.5598 270.496 28.7562 270.947 28.7949 271.494H27.8191C27.7869 271.146 27.642 270.87 27.3843 270.663C27.1267 270.451 26.7918 270.345 26.3796 270.345C25.9738 270.345 25.655 270.432 25.4231 270.605C25.1912 270.773 25.0753 270.998 25.0753 271.282C25.0753 271.501 25.1461 271.684 25.2878 271.832C25.4295 271.981 25.6131 272.093 25.8385 272.171C26.064 272.248 26.3152 272.319 26.5921 272.383C26.8691 272.448 27.1428 272.525 27.4133 272.615C27.6903 272.705 27.9415 272.818 28.1669 272.953C28.3923 273.082 28.5759 273.272 28.7176 273.523C28.8593 273.768 28.9301 274.064 28.9301 274.412ZM32.0579 269.533V276.296H31.0532V271.098C30.9437 271.259 30.715 271.34 30.3672 271.34H29.7682V270.451H30.2899C30.5411 270.451 30.7279 270.386 30.8503 270.258C30.9791 270.122 31.0596 269.881 31.0918 269.533H32.0579ZM35.5205 269.533V276.296H34.5157V271.098C34.4062 271.259 34.1776 271.34 33.8298 271.34H33.2308V270.451H33.7525C34.0037 270.451 34.1905 270.386 34.3128 270.258C34.4417 270.122 34.5222 269.881 34.5544 269.533H35.5205ZM39.0877 276.373C38.2762 276.373 37.6772 276.106 37.2908 275.571C36.9107 275.03 36.7207 274.232 36.7207 273.175V272.654C36.7207 271.597 36.9107 270.802 37.2908 270.267C37.6772 269.726 38.2762 269.456 39.0877 269.456H39.4355C40.2535 269.456 40.8525 269.726 41.2325 270.267C41.6125 270.802 41.8025 271.597 41.8025 272.654V273.175C41.8025 274.232 41.6125 275.03 41.2325 275.571C40.8525 276.106 40.2535 276.373 39.4355 276.373H39.0877ZM39.1264 275.484H39.4066C40.334 275.484 40.7978 274.779 40.7978 273.369V272.46C40.7978 271.05 40.334 270.345 39.4066 270.345H39.1264C38.1989 270.345 37.7352 271.05 37.7352 272.46V273.369C37.7352 274.779 38.1989 275.484 39.1264 275.484Z" fill="#7F7F7F"/>
<path d="M28.9301 237.22C28.9301 237.767 28.7369 238.211 28.3504 238.553C27.9704 238.894 27.4648 239.097 26.8336 239.161V240.012L25.9931 240.002V239.152C25.3619 239.068 24.8563 238.823 24.4763 238.418C24.0963 238.012 23.8902 237.493 23.858 236.862H24.8338C24.8724 237.307 25.0302 237.658 25.3072 237.915C25.5906 238.166 25.9673 238.292 26.4375 238.292C26.8819 238.292 27.2362 238.205 27.5003 238.031C27.7708 237.851 27.906 237.583 27.906 237.229C27.906 236.978 27.8094 236.772 27.6162 236.611C27.4294 236.443 27.1943 236.324 26.9109 236.253C26.6275 236.176 26.3184 236.086 25.9835 235.983C25.655 235.88 25.349 235.77 25.0656 235.654C24.7822 235.532 24.5439 235.339 24.3507 235.075C24.1639 234.804 24.0705 234.476 24.0705 234.089C24.0705 233.606 24.2444 233.201 24.5922 232.872C24.9465 232.544 25.4134 232.347 25.9931 232.283V231.471H26.8336V232.292C27.4004 232.37 27.8577 232.589 28.2055 232.949C28.5598 233.304 28.7562 233.754 28.7949 234.302H27.8191C27.7869 233.954 27.642 233.677 27.3843 233.471C27.1267 233.258 26.7918 233.152 26.3796 233.152C25.9738 233.152 25.655 233.239 25.4231 233.413C25.1912 233.581 25.0753 233.806 25.0753 234.089C25.0753 234.308 25.1461 234.492 25.2878 234.64C25.4295 234.788 25.6131 234.901 25.8385 234.978C26.064 235.055 26.3152 235.126 26.5921 235.191C26.8691 235.255 27.1428 235.332 27.4133 235.423C27.6903 235.513 27.9415 235.625 28.1669 235.761C28.3923 235.89 28.5759 236.08 28.7176 236.331C28.8593 236.576 28.9301 236.872 28.9301 237.22ZM32.0579 232.341V239.104H31.0532V233.906C30.9437 234.067 30.715 234.147 30.3672 234.147H29.7682V233.258H30.2899C30.5411 233.258 30.7279 233.194 30.8503 233.065C30.9791 232.93 31.0596 232.688 31.0918 232.341H32.0579ZM35.5205 232.341V239.104H34.5157V233.906C34.4062 234.067 34.1776 234.147 33.8298 234.147H33.2308V233.258H33.7525C34.0037 233.258 34.1905 233.194 34.3128 233.065C34.4417 232.93 34.5222 232.688 34.5544 232.341H35.5205ZM39.07 239.181C38.4388 239.181 37.9042 238.991 37.4662 238.611C37.0347 238.231 36.7932 237.748 36.7417 237.162H37.7078C37.7529 237.522 37.8946 237.802 38.1329 238.002C38.3712 238.195 38.6803 238.292 39.0603 238.292C39.5176 238.292 39.8815 238.166 40.1521 237.915C40.4226 237.658 40.5578 237.31 40.5578 236.872C40.5578 236.434 40.4226 236.083 40.1521 235.819C39.8815 235.548 39.5209 235.413 39.07 235.413C38.3808 235.413 37.93 235.651 37.7174 236.128H36.8769L37.4083 232.341H41.0989V233.23H38.1619L37.8913 235.055C38.252 234.727 38.6964 234.563 39.2246 234.563C39.9137 234.563 40.4773 234.782 40.9153 235.22C41.3597 235.651 41.5819 236.202 41.5819 236.872C41.5819 237.555 41.3468 238.112 40.8766 238.543C40.4065 238.968 39.8043 239.181 39.07 239.181Z" fill="#7F7F7F"/>
<path d="M28.9301 200.027C28.9301 200.575 28.7369 201.019 28.3504 201.36C27.9704 201.702 27.4648 201.905 26.8336 201.969V202.819L25.9931 202.81V201.959C25.3619 201.876 24.8563 201.631 24.4763 201.225C24.0963 200.819 23.8902 200.301 23.858 199.67H24.8338C24.8724 200.114 25.0302 200.465 25.3072 200.723C25.5906 200.974 25.9673 201.1 26.4375 201.1C26.8819 201.1 27.2362 201.013 27.5003 200.839C27.7708 200.658 27.906 200.391 27.906 200.037C27.906 199.786 27.8094 199.58 27.6162 199.419C27.4294 199.251 27.1943 199.132 26.9109 199.061C26.6275 198.984 26.3184 198.894 25.9835 198.791C25.655 198.688 25.349 198.578 25.0656 198.462C24.7822 198.34 24.5439 198.146 24.3507 197.882C24.1639 197.612 24.0705 197.283 24.0705 196.897C24.0705 196.414 24.2444 196.008 24.5922 195.68C24.9465 195.351 25.4134 195.155 25.9931 195.09V194.279H26.8336V195.1C27.4004 195.177 27.8577 195.396 28.2055 195.757C28.5598 196.111 28.7562 196.562 28.7949 197.11H27.8191C27.7869 196.762 27.642 196.485 27.3843 196.279C27.1267 196.066 26.7918 195.96 26.3796 195.96C25.9738 195.96 25.655 196.047 25.4231 196.221C25.1912 196.388 25.0753 196.614 25.0753 196.897C25.0753 197.116 25.1461 197.3 25.2878 197.448C25.4295 197.596 25.6131 197.709 25.8385 197.786C26.064 197.863 26.3152 197.934 26.5921 197.998C26.8691 198.063 27.1428 198.14 27.4133 198.23C27.6903 198.32 27.9415 198.433 28.1669 198.568C28.3923 198.697 28.5759 198.887 28.7176 199.138C28.8593 199.383 28.9301 199.679 28.9301 200.027ZM32.0579 195.148V201.911H31.0532V196.713C30.9437 196.874 30.715 196.955 30.3672 196.955H29.7682V196.066H30.2899C30.5411 196.066 30.7279 196.002 30.8503 195.873C30.9791 195.738 31.0596 195.496 31.0918 195.148H32.0579ZM33.3081 197.399C33.2823 196.684 33.4788 196.118 33.8974 195.699C34.3161 195.28 34.8829 195.071 35.5978 195.071C36.2676 195.071 36.8119 195.261 37.2305 195.641C37.6492 196.015 37.8585 196.507 37.8585 197.119C37.8585 198.014 37.3304 198.733 36.2741 199.274L35.279 199.776C34.9891 199.918 34.7412 200.098 34.535 200.317C34.3354 200.53 34.2356 200.765 34.2356 201.022H37.8778V201.911H33.2501V201.187C33.2501 200.826 33.3403 200.488 33.5206 200.172C33.701 199.857 33.9006 199.609 34.1196 199.428C34.345 199.241 34.5898 199.084 34.8539 198.955L35.9069 198.423C36.5253 198.108 36.8344 197.67 36.8344 197.11C36.8344 196.755 36.7185 196.472 36.4866 196.259C36.2612 196.04 35.9649 195.931 35.5978 195.931C35.192 195.931 34.8732 196.066 34.6413 196.337C34.4159 196.601 34.3128 196.955 34.3322 197.399H33.3081ZM41.0124 201.988C40.2009 201.988 39.6019 201.721 39.2154 201.187C38.8354 200.646 38.6454 199.847 38.6454 198.791V198.269C38.6454 197.213 38.8354 196.417 39.2154 195.883C39.6019 195.342 40.2009 195.071 41.0124 195.071H41.3602C42.1782 195.071 42.7772 195.342 43.1572 195.883C43.5372 196.417 43.7272 197.213 43.7272 198.269V198.791C43.7272 199.847 43.5372 200.646 43.1572 201.187C42.7772 201.721 42.1782 201.988 41.3602 201.988H41.0124ZM41.0511 201.1H41.3313C42.2587 201.1 42.7225 200.394 42.7225 198.984V198.076C42.7225 196.665 42.2587 195.96 41.3313 195.96H41.0511C40.1236 195.96 39.6599 196.665 39.6599 198.076V198.984C39.6599 200.394 40.1236 201.1 41.0511 201.1Z" fill="#7F7F7F"/>
<path d="M28.9301 162.835C28.9301 163.382 28.7369 163.827 28.3504 164.168C27.9704 164.509 27.4648 164.712 26.8336 164.777V165.627L25.9931 165.617V164.767C25.3619 164.683 24.8563 164.439 24.4763 164.033C24.0963 163.627 23.8902 163.109 23.858 162.477H24.8338C24.8724 162.922 25.0302 163.273 25.3072 163.53C25.5906 163.782 25.9673 163.907 26.4375 163.907C26.8819 163.907 27.2362 163.82 27.5003 163.646C27.7708 163.466 27.906 163.199 27.906 162.844C27.906 162.593 27.8094 162.387 27.6162 162.226C27.4294 162.059 27.1943 161.94 26.9109 161.869C26.6275 161.791 26.3184 161.701 25.9835 161.598C25.655 161.495 25.349 161.386 25.0656 161.27C24.7822 161.147 24.5439 160.954 24.3507 160.69C24.1639 160.42 24.0705 160.091 24.0705 159.705C24.0705 159.222 24.2444 158.816 24.5922 158.487C24.9465 158.159 25.4134 157.962 25.9931 157.898V157.086H26.8336V157.908C27.4004 157.985 27.8577 158.204 28.2055 158.565C28.5598 158.919 28.7562 159.37 28.7949 159.917H27.8191C27.7869 159.569 27.642 159.292 27.3843 159.086C27.1267 158.874 26.7918 158.767 26.3796 158.767C25.9738 158.767 25.655 158.854 25.4231 159.028C25.1912 159.196 25.0753 159.421 25.0753 159.705C25.0753 159.924 25.1461 160.107 25.2878 160.255C25.4295 160.403 25.6131 160.516 25.8385 160.593C26.064 160.671 26.3152 160.742 26.5921 160.806C26.8691 160.87 27.1428 160.948 27.4133 161.038C27.6903 161.128 27.9415 161.241 28.1669 161.376C28.3923 161.505 28.5759 161.695 28.7176 161.946C28.8593 162.191 28.9301 162.487 28.9301 162.835ZM32.0579 157.956V164.719H31.0532V159.521C30.9437 159.682 30.715 159.763 30.3672 159.763H29.7682V158.874H30.2899C30.5411 158.874 30.7279 158.809 30.8503 158.68C30.9791 158.545 31.0596 158.304 31.0918 157.956H32.0579ZM33.3081 160.207C33.2823 159.492 33.4788 158.925 33.8974 158.507C34.3161 158.088 34.8829 157.879 35.5978 157.879C36.2676 157.879 36.8119 158.069 37.2305 158.449C37.6492 158.822 37.8585 159.315 37.8585 159.927C37.8585 160.822 37.3304 161.54 36.2741 162.081L35.279 162.584C34.9891 162.725 34.7412 162.906 34.535 163.125C34.3354 163.337 34.2356 163.572 34.2356 163.83H37.8778V164.719H33.2501V163.994C33.2501 163.633 33.3403 163.295 33.5206 162.98C33.701 162.664 33.9006 162.416 34.1196 162.236C34.345 162.049 34.5898 161.891 34.8539 161.762L35.9069 161.231C36.5253 160.915 36.8344 160.477 36.8344 159.917C36.8344 159.563 36.7185 159.279 36.4866 159.067C36.2612 158.848 35.9649 158.738 35.5978 158.738C35.192 158.738 34.8732 158.874 34.6413 159.144C34.4159 159.408 34.3128 159.763 34.3322 160.207H33.3081ZM40.9664 164.796C40.3352 164.796 39.8006 164.606 39.3626 164.226C38.9311 163.846 38.6896 163.363 38.638 162.777H39.6042C39.6492 163.138 39.7909 163.418 40.0293 163.617C40.2676 163.811 40.5767 163.907 40.9567 163.907C41.414 163.907 41.7779 163.782 42.0484 163.53C42.319 163.273 42.4542 162.925 42.4542 162.487C42.4542 162.049 42.319 161.698 42.0484 161.434C41.7779 161.163 41.4172 161.028 40.9664 161.028C40.2772 161.028 39.8264 161.266 39.6138 161.743H38.7733L39.3047 157.956H42.9952V158.845H40.0582L39.7877 160.671C40.1484 160.342 40.5928 160.178 41.121 160.178C41.8101 160.178 42.3737 160.397 42.8117 160.835C43.2561 161.266 43.4783 161.817 43.4783 162.487C43.4783 163.17 43.2432 163.727 42.773 164.158C42.3029 164.583 41.7006 164.796 40.9664 164.796Z" fill="#7F7F7F"/>
<path d="M28.9301 125.642C28.9301 126.19 28.7369 126.634 28.3504 126.976C27.9704 127.317 27.4648 127.52 26.8336 127.584V128.435L25.9931 128.425V127.575C25.3619 127.491 24.8563 127.246 24.4763 126.84C24.0963 126.435 23.8902 125.916 23.858 125.285H24.8338C24.8724 125.729 25.0302 126.08 25.3072 126.338C25.5906 126.589 25.9673 126.715 26.4375 126.715C26.8819 126.715 27.2362 126.628 27.5003 126.454C27.7708 126.274 27.906 126.006 27.906 125.652C27.906 125.401 27.8094 125.195 27.6162 125.034C27.4294 124.866 27.1943 124.747 26.9109 124.676C26.6275 124.599 26.3184 124.509 25.9835 124.406C25.655 124.303 25.349 124.193 25.0656 124.077C24.7822 123.955 24.5439 123.762 24.3507 123.498C24.1639 123.227 24.0705 122.899 24.0705 122.512C24.0705 122.029 24.2444 121.623 24.5922 121.295C24.9465 120.966 25.4134 120.77 25.9931 120.706V119.894H26.8336V120.715C27.4004 120.793 27.8577 121.011 28.2055 121.372C28.5598 121.726 28.7562 122.177 28.7949 122.725H27.8191C27.7869 122.377 27.642 122.1 27.3843 121.894C27.1267 121.681 26.7918 121.575 26.3796 121.575C25.9738 121.575 25.655 121.662 25.4231 121.836C25.1912 122.003 25.0753 122.229 25.0753 122.512C25.0753 122.731 25.1461 122.915 25.2878 123.063C25.4295 123.211 25.6131 123.324 25.8385 123.401C26.064 123.478 26.3152 123.549 26.5921 123.614C26.8691 123.678 27.1428 123.755 27.4133 123.845C27.6903 123.936 27.9415 124.048 28.1669 124.184C28.3923 124.312 28.5759 124.502 28.7176 124.754C28.8593 124.998 28.9301 125.295 28.9301 125.642ZM32.0579 120.764V127.526H31.0532V122.329C30.9437 122.49 30.715 122.57 30.3672 122.57H29.7682V121.681H30.2899C30.5411 121.681 30.7279 121.617 30.8503 121.488C30.9791 121.353 31.0596 121.111 31.0918 120.764H32.0579ZM35.733 127.604C35.031 127.604 34.4449 127.401 33.9747 126.995C33.511 126.589 33.2791 126.058 33.2791 125.401H34.2645C34.2645 125.8 34.403 126.119 34.68 126.357C34.9569 126.596 35.3079 126.715 35.733 126.715C36.171 126.715 36.5156 126.615 36.7668 126.415C37.0244 126.209 37.1532 125.929 37.1532 125.575C37.1532 125.221 37.0276 124.947 36.7764 124.754C36.5253 124.56 36.1775 124.464 35.733 124.464H35.163V123.604H35.7234C36.0776 123.604 36.361 123.507 36.5736 123.314C36.7861 123.114 36.8924 122.86 36.8924 122.551C36.8924 122.248 36.7797 122.01 36.5542 121.836C36.3353 121.662 36.0422 121.575 35.6751 121.575C35.3144 121.575 35.0246 121.675 34.8056 121.875C34.5866 122.068 34.4674 122.351 34.4481 122.725H33.482C33.5013 122.106 33.7171 121.614 34.1293 121.247C34.5479 120.873 35.0664 120.686 35.6847 120.686C36.3224 120.686 36.8505 120.857 37.2692 121.198C37.6878 121.54 37.8971 121.968 37.8971 122.483C37.8971 122.805 37.8102 123.102 37.6363 123.372C37.4624 123.643 37.2402 123.842 36.9697 123.971C37.3304 124.093 37.6202 124.296 37.8392 124.58C38.0582 124.863 38.1677 125.198 38.1677 125.584C38.1677 126.209 37.9326 126.702 37.4624 127.063C36.9922 127.423 36.4158 127.604 35.733 127.604ZM41.3143 127.604C40.5028 127.604 39.9038 127.336 39.5174 126.802C39.1374 126.261 38.9474 125.462 38.9474 124.406V123.884C38.9474 122.828 39.1374 122.032 39.5174 121.498C39.9038 120.957 40.5028 120.686 41.3143 120.686H41.6621C42.4801 120.686 43.0791 120.957 43.4591 121.498C43.8391 122.032 44.0291 122.828 44.0291 123.884V124.406C44.0291 125.462 43.8391 126.261 43.4591 126.802C43.0791 127.336 42.4801 127.604 41.6621 127.604H41.3143ZM41.353 126.715H41.6332C42.5606 126.715 43.0244 126.01 43.0244 124.599V123.691C43.0244 122.28 42.5606 121.575 41.6332 121.575H41.353C40.4255 121.575 39.9618 122.28 39.9618 123.691V124.599C39.9618 126.01 40.4255 126.715 41.353 126.715Z" fill="#7F7F7F"/>
<path d="M69.2747 234.128H466.062" stroke="#9D9DA2" stroke-width="0.8051" stroke-dasharray="4.03 4.03"/>
<path d="M69.2747 196.935H466.062" stroke="#E3E3E8" stroke-width="0.8051" stroke-dasharray="4.03 4.03"/>
<path d="M69.2747 159.743H466.062" stroke="#E3E3E8" stroke-width="0.8051" stroke-dasharray="4.03 4.03"/>
<path d="M69.2747 122.551H466.062" stroke="#E3E3E8" stroke-width="0.8051" stroke-dasharray="4.03 4.03"/>
</g>
</g>
<defs>
<filter id="filter0_d_634_788" x="-43.7104" y="-28.5177" width="560.539" height="522.539" filterUnits="userSpaceOnUse" color-interpolation-filters="sRGB">
<feFlood flood-opacity="0" result="BackgroundImageFix"/>
<feColorMatrix in="SourceAlpha" type="matrix" values="0 0 0 0 0 0 0 0 0 0 0 0 0 0 0 0 0 0 127 0" result="hardAlpha"/>
<feOffset dy="16.08"/>
<feGaussianBlur stdDeviation="22.1167"/>
<feComposite in2="hardAlpha" operator="out"/>
<feColorMatrix type="matrix" values="0 0 0 0 0 0 0 0 0 0 0 0 0 0 0 0 0 0 0.08 0"/>
<feBlend mode="normal" in2="BackgroundImageFix" result="effect1_dropShadow_634_788"/>
<feBlend mode="normal" in="SourceGraphic" in2="effect1_dropShadow_634_788" result="shape"/>
</filter>
<linearGradient id="paint0_linear_634_788" x1="267.669" y1="168.44" x2="267.669" y2="309.922" gradientUnits="userSpaceOnUse">
<stop stop-color="#8DC546" stop-opacity="0.1"/>
<stop offset="1" stop-opacity="0"/>
</linearGradient>
<clipPath id="clip0_634_788">
<rect x="0.0588379" y="0.171875" width="472" height="270" rx="10" fill="white"/>
</clipPath>
</defs>
</svg>
