<svg width="16" height="18" viewBox="0 0 16 18" fill="none" xmlns="http://www.w3.org/2000/svg">
<g clip-path="url(#clip0_634_2562)">
<mask id="mask0_634_2562" style="mask-type:luminance" maskUnits="userSpaceOnUse" x="0" y="0" width="16" height="17">
<path d="M16 0.408203H0V16.4082H16V0.408203Z" fill="white"/>
</mask>
<g mask="url(#mask0_634_2562)">
<path d="M4.68672 0.464215C3.83552 0.504348 3.25425 0.640215 2.74605 0.839815C2.22019 1.04481 1.77439 1.31981 1.33085 1.76495C0.887388 2.21008 0.614188 2.65615 0.410721 3.18295C0.213788 3.69215 0.0803211 4.27395 0.0427211 5.12561C0.00512106 5.97728 -0.00321227 6.25108 0.000987724 8.42361C0.00512106 10.596 0.0147211 10.8684 0.0559877 11.7218C0.0966544 12.5728 0.231988 13.154 0.431654 13.6623C0.636988 14.1882 0.911654 14.6338 1.35699 15.0775C1.80225 15.5212 2.24799 15.7937 2.77599 15.9975C3.28479 16.1942 3.86672 16.3282 4.71825 16.3655C5.56979 16.4028 5.84385 16.4115 8.01572 16.4073C10.1876 16.4032 10.4611 16.3935 11.3143 16.353C12.1676 16.3126 12.7456 16.1762 13.2541 15.9775C13.7801 15.7718 14.226 15.4975 14.6693 15.0521C15.1127 14.6066 15.3857 14.1602 15.589 13.6332C15.7861 13.1244 15.9201 12.5425 15.957 11.6916C15.9943 10.8376 16.0031 10.565 15.999 8.39288C15.9948 6.22068 15.985 5.94835 15.9445 5.09521C15.9041 4.24208 15.7685 3.66275 15.569 3.15408C15.3634 2.62815 15.089 2.18288 14.6439 1.73888C14.1988 1.29488 13.752 1.02208 13.2252 0.819215C12.716 0.622215 12.1345 0.488015 11.2829 0.451215C10.4314 0.414415 10.1573 0.404881 7.98465 0.409148C5.81199 0.413281 5.53999 0.422615 4.68672 0.464215ZM4.78019 14.9263C4.00019 14.8924 3.57665 14.7628 3.29439 14.6543C2.92065 14.5103 2.65439 14.3362 2.37312 14.0576C2.09179 13.7791 1.91905 13.5119 1.77312 13.139C1.66352 12.8567 1.53152 12.4336 1.49505 11.6536C1.45539 10.8106 1.44705 10.5575 1.44239 8.42161C1.43772 6.28581 1.44592 6.03295 1.48285 5.18961C1.51619 4.41028 1.64659 3.98628 1.75485 3.70415C1.89885 3.32995 2.07232 3.06415 2.35152 2.78308C2.63072 2.50195 2.89712 2.32881 3.27039 2.18288C3.55239 2.07281 3.97539 1.94195 4.75505 1.90481C5.59872 1.86481 5.85152 1.85681 7.98705 1.85215C10.1226 1.84748 10.3761 1.85548 11.2201 1.89268C11.9994 1.92655 12.4236 2.05568 12.7054 2.16468C13.0793 2.30868 13.3454 2.48161 13.6265 2.76135C13.9076 3.04095 14.0809 3.30641 14.2268 3.68048C14.337 3.96161 14.4679 4.38448 14.5047 5.16468C14.5449 6.00835 14.554 6.26135 14.5578 8.39668C14.5617 10.532 14.5541 10.7856 14.5171 11.6287C14.4831 12.4087 14.3538 12.8324 14.2451 13.115C14.1011 13.4886 13.9276 13.755 13.6482 14.0359C13.3689 14.3169 13.1028 14.49 12.7293 14.6359C12.4477 14.7458 12.0242 14.877 11.2452 14.9142C10.4015 14.9538 10.1487 14.9622 8.01232 14.9668C5.87599 14.9715 5.62385 14.9628 4.78019 14.9263ZM11.302 4.13248C11.3023 4.32237 11.3589 4.50789 11.4647 4.6656C11.5705 4.8233 11.7206 4.9461 11.8962 5.01845C12.0717 5.09081 12.2648 5.10947 12.451 5.07209C12.6372 5.0347 12.8081 4.94295 12.9421 4.80843C13.0761 4.6739 13.1672 4.50266 13.2039 4.31635C13.2406 4.13004 13.2212 3.93704 13.1482 3.76175C13.0752 3.58646 12.9518 3.43676 12.7937 3.33159C12.6356 3.22641 12.4499 3.17048 12.26 3.17088C12.0054 3.17141 11.7615 3.27301 11.5819 3.45333C11.4022 3.63365 11.3016 3.87794 11.302 4.13248ZM3.89232 8.41621C3.89679 10.685 5.73939 12.52 8.00766 12.5158C10.2761 12.5114 12.1123 10.669 12.1081 8.40021C12.1037 6.13141 10.2607 4.29588 7.99205 4.30035C5.72339 4.30481 3.88805 6.14768 3.89232 8.41621ZM5.33332 8.41335C5.33228 7.88593 5.48766 7.37006 5.77981 6.93095C6.07195 6.49184 6.48775 6.14923 6.97462 5.94643C7.46148 5.74363 7.99755 5.68976 8.51503 5.79163C9.03252 5.8935 9.50817 6.14653 9.88185 6.51872C10.2555 6.89092 10.5104 7.36556 10.6144 7.88264C10.7183 8.39971 10.6666 8.93599 10.4657 9.42366C10.2648 9.91133 9.92387 10.3285 9.48593 10.6224C9.04799 10.9163 8.53273 11.0737 8.00532 11.0748C7.65511 11.0755 7.30819 11.0072 6.98437 10.8739C6.66055 10.7405 6.36616 10.5447 6.11804 10.2975C5.86991 10.0504 5.6729 9.75678 5.53826 9.43349C5.40362 9.1102 5.33398 8.76355 5.33332 8.41335Z" fill="black"/>
</g>
</g>
<defs>
<clipPath id="clip0_634_2562">
<rect width="16" height="17" fill="white" transform="translate(0 0.273682)"/>
</clipPath>
</defs>
</svg>
