<svg width="16" height="18" viewBox="0 0 16 18" fill="none" xmlns="http://www.w3.org/2000/svg">
<g clip-path="url(#clip0_634_2578)">
<mask id="mask0_634_2578" style="mask-type:luminance" maskUnits="userSpaceOnUse" x="0" y="0" width="16" height="17">
<path d="M0 0.408203H16V16.4082H0V0.408203Z" fill="white"/>
</mask>
<g mask="url(#mask0_634_2578)">
<path d="M13.6313 14.0429H11.262V10.3302C11.262 9.44487 11.244 8.30553 10.0273 8.30553C8.792 8.30553 8.60333 9.26887 8.60333 10.2649V14.0429H6.234V6.4082H8.51V7.44887H8.54067C8.85867 6.84887 9.632 6.21554 10.7873 6.21554C13.188 6.21554 13.632 7.79554 13.632 9.8522L13.6313 14.0429ZM3.558 5.36354C2.79533 5.36354 2.18267 4.7462 2.18267 3.98687C2.18267 3.2282 2.796 2.61153 3.558 2.61153C4.318 2.61153 4.934 3.2282 4.934 3.98687C4.934 4.7462 4.31733 5.36354 3.558 5.36354ZM4.746 14.0429H2.37V6.4082H4.746V14.0429ZM14.8167 0.408203H1.18067C0.528 0.408203 0 0.924204 0 1.56087V15.2556C0 15.8929 0.528 16.4082 1.18067 16.4082H14.8147C15.4667 16.4082 16 15.8929 16 15.2556V1.56087C16 0.924204 15.4667 0.408203 14.8147 0.408203H14.8167Z" fill="black"/>
</g>
</g>
<defs>
<clipPath id="clip0_634_2578">
<rect width="16" height="17" fill="white" transform="translate(0 0.273682)"/>
</clipPath>
</defs>
</svg>
