<svg width="87" height="41" viewBox="0 0 87 41" fill="none" xmlns="http://www.w3.org/2000/svg">
<path d="M17.6515 39.083V36.2681H18.2587V39.083H17.6515ZM19.1042 39.083V36.2681H19.7476L20.8776 38.1299V36.2681H21.4808V39.083H20.8374L19.7074 37.2211V39.083H19.1042ZM22.3241 39.083V36.2681H24.2382V36.7868H22.9272V37.4142H23.9728V37.9369H22.9272V39.083H22.3241ZM24.9588 39.083V36.2681H25.566V38.5602H26.8448V39.083H24.9588ZM29.232 38.8417C29.0309 39.024 28.7588 39.1152 28.4157 39.1152C28.0725 39.1152 27.7991 39.024 27.5953 38.8417C27.3943 38.6567 27.2937 38.3913 27.2937 38.0455V36.2681H27.8607V38.0455C27.8607 38.2251 27.9103 38.3605 28.0095 38.4517C28.1114 38.5428 28.2468 38.5884 28.4157 38.5884C28.5846 38.5884 28.7199 38.5428 28.8218 38.4517C28.9237 38.3605 28.9746 38.2251 28.9746 38.0455V36.2681H29.5376V38.0455C29.5376 38.3913 29.4357 38.6567 29.232 38.8417ZM30.3264 39.083V36.2681H32.2405V36.7868H30.9296V37.382H31.9751V37.9048H30.9296V38.5602H32.2848V39.083H30.3264ZM33.0043 39.083V36.2681H33.6477L34.7777 38.1299V36.2681H35.3809V39.083H34.7375L33.6075 37.2211V39.083H33.0043ZM37.511 39.1152C37.1088 39.1152 36.7724 38.9892 36.5016 38.7372C36.2336 38.4852 36.0995 38.1313 36.0995 37.6755C36.0995 37.2225 36.2349 36.8699 36.5057 36.6179C36.7764 36.3633 37.1115 36.2359 37.511 36.2359C37.8649 36.2359 38.1611 36.3284 38.3997 36.5134C38.6383 36.6984 38.7763 36.9423 38.8139 37.2453H38.1825C38.1638 37.1005 38.0914 36.9825 37.9654 36.8914C37.8394 36.8002 37.6879 36.7547 37.511 36.7547C37.2751 36.7547 37.082 36.8351 36.9319 36.9959C36.7818 37.1568 36.7067 37.3833 36.7067 37.6755C36.7067 37.9678 36.7818 38.1943 36.9319 38.3551C37.082 38.5133 37.2751 38.5924 37.511 38.5924C37.6906 38.5924 37.8434 38.5482 37.9694 38.4597C38.0981 38.3685 38.1745 38.2506 38.1986 38.1058H38.8018C38.775 38.4088 38.6423 38.6527 38.4037 38.8377C38.1678 39.0227 37.8702 39.1152 37.511 39.1152ZM39.4951 39.083V36.2681H41.4092V36.7868H40.0983V37.382H41.1438V37.9048H40.0983V38.5602H41.4534V39.083H39.4951ZM44.2761 38.3069L44.3525 39.083H43.7493L43.6729 38.3873C43.6622 38.2908 43.6247 38.2131 43.5603 38.1541C43.4987 38.0924 43.4209 38.0616 43.3271 38.0616H42.7802V39.083H42.173V36.2681H43.3593C43.6542 36.2681 43.8861 36.3499 44.0549 36.5134C44.2238 36.6769 44.3083 36.8901 44.3083 37.1528C44.3083 37.4209 44.1903 37.6166 43.9544 37.7399C44.1448 37.8712 44.252 38.0602 44.2761 38.3069ZM42.7802 36.7708V37.5428H43.3271C43.4585 37.5428 43.5577 37.5053 43.6247 37.4302C43.6917 37.3552 43.7252 37.2627 43.7252 37.1528C43.7252 37.0429 43.6917 36.9517 43.6247 36.8793C43.5577 36.8069 43.4585 36.7708 43.3271 36.7708H42.7802ZM48.0476 38.8859C47.8546 39.0388 47.5986 39.1152 47.2795 39.1152C46.9605 39.1152 46.7018 39.0254 46.5034 38.8457C46.3077 38.6661 46.2032 38.4262 46.1898 38.1259H46.7688C46.7822 38.2707 46.8332 38.3846 46.9216 38.4677C47.0128 38.5508 47.1321 38.5924 47.2795 38.5924C47.4163 38.5924 47.5248 38.5642 47.6053 38.5079C47.6884 38.4517 47.7299 38.3712 47.7299 38.2667C47.7299 38.1943 47.7031 38.134 47.6495 38.0857C47.5959 38.0375 47.5262 37.9999 47.4404 37.9731C47.3546 37.9463 47.2594 37.9222 47.1549 37.9007C47.053 37.8766 46.9498 37.8458 46.8452 37.8082C46.7407 37.7707 46.6455 37.7238 46.5597 37.6675C46.4739 37.6085 46.4042 37.5254 46.3506 37.4182C46.297 37.3109 46.2702 37.1823 46.2702 37.0321C46.2702 36.7989 46.3614 36.6086 46.5436 36.4611C46.7259 36.311 46.9592 36.2359 47.2434 36.2359C47.5463 36.2359 47.7916 36.3164 47.9792 36.4772C48.1696 36.6381 48.2688 36.8525 48.2768 37.1206H47.7018C47.6911 37.008 47.6455 36.9195 47.5651 36.8552C47.4846 36.7882 47.3774 36.7547 47.2434 36.7547C47.1254 36.7547 47.0316 36.7801 46.9619 36.8311C46.8922 36.882 46.8573 36.949 46.8573 37.0321C46.8573 37.1233 46.8935 37.197 46.9659 37.2533C47.0409 37.3069 47.1321 37.3445 47.2393 37.3659C47.3492 37.3847 47.4685 37.4128 47.5972 37.4504C47.7259 37.4852 47.8439 37.5268 47.9511 37.575C48.061 37.6233 48.1522 37.7064 48.2245 37.8243C48.2996 37.9396 48.3371 38.0844 48.3371 38.2586C48.3371 38.5214 48.2406 38.7305 48.0476 38.8859ZM49.5572 39.083V36.7868H48.7248V36.2681H50.9928V36.7868H50.1604V39.083H49.5572ZM53.7917 38.705C53.5209 38.9784 53.1791 39.1152 52.7663 39.1152C52.3534 39.1152 52.0103 38.9784 51.7368 38.705C51.4634 38.4315 51.3266 38.0884 51.3266 37.6755C51.3266 37.2627 51.4634 36.9195 51.7368 36.6461C52.0103 36.3727 52.3534 36.2359 52.7663 36.2359C53.1791 36.2359 53.5209 36.3727 53.7917 36.6461C54.0651 36.9195 54.2019 37.2627 54.2019 37.6755C54.2019 38.0884 54.0651 38.4315 53.7917 38.705ZM52.1671 38.335C52.3226 38.5066 52.521 38.5924 52.7622 38.5924C53.0035 38.5924 53.2019 38.5053 53.3574 38.331C53.5156 38.1568 53.5946 37.9383 53.5946 37.6755C53.5946 37.4101 53.5156 37.1903 53.3574 37.0161C53.2019 36.8418 53.0035 36.7547 52.7622 36.7547C52.521 36.7547 52.3226 36.8418 52.1671 37.0161C52.0116 37.1903 51.9339 37.4101 51.9339 37.6755C51.9339 37.9409 52.0116 38.1608 52.1671 38.335ZM56.2054 39.1152C55.8032 39.1152 55.4668 38.9892 55.196 38.7372C54.9279 38.4852 54.7939 38.1313 54.7939 37.6755C54.7939 37.2225 54.9293 36.8699 55.2 36.6179C55.4708 36.3633 55.8059 36.2359 56.2054 36.2359C56.5592 36.2359 56.8555 36.3284 57.0941 36.5134C57.3327 36.6984 57.4707 36.9423 57.5083 37.2453H56.8769C56.8582 37.1005 56.7858 36.9825 56.6598 36.8914C56.5338 36.8002 56.3823 36.7547 56.2054 36.7547C55.9695 36.7547 55.7764 36.8351 55.6263 36.9959C55.4762 37.1568 55.4011 37.3833 55.4011 37.6755C55.4011 37.9678 55.4762 38.1943 55.6263 38.3551C55.7764 38.5133 55.9695 38.5924 56.2054 38.5924C56.385 38.5924 56.5378 38.5482 56.6638 38.4597C56.7925 38.3685 56.8689 38.2506 56.893 38.1058H57.4962C57.4694 38.4088 57.3367 38.6527 57.0981 38.8377C56.8622 39.0227 56.5646 39.1152 56.2054 39.1152ZM59.9508 39.083L59.1827 37.8324L58.7967 38.2546V39.083H58.1895V36.2681H58.7967V37.4423L59.8583 36.2681H60.6103L59.5969 37.382L60.7108 39.083H59.9508ZM62.485 39.083V36.2681H64.3991V36.7868H63.0882V37.382H64.1337V37.9048H63.0882V38.5602H64.4434V39.083H62.485ZM67.3304 39.083H66.695L66.1602 38.1983L65.6254 39.083H64.982L65.8425 37.6755L64.99 36.2681H65.6173L66.1562 37.1568L66.699 36.2681H67.3264L66.4739 37.6755L67.3304 39.083ZM69.0648 39.1152C68.6627 39.1152 68.3262 38.9892 68.0555 38.7372C67.7874 38.4852 67.6533 38.1313 67.6533 37.6755C67.6533 37.2225 67.7887 36.8699 68.0595 36.6179C68.3303 36.3633 68.6654 36.2359 69.0648 36.2359C69.4187 36.2359 69.7149 36.3284 69.9535 36.5134C70.1921 36.6984 70.3302 36.9423 70.3677 37.2453H69.7364C69.7176 37.1005 69.6452 36.9825 69.5192 36.8914C69.3932 36.8002 69.2418 36.7547 69.0648 36.7547C68.8289 36.7547 68.6359 36.8351 68.4858 36.9959C68.3356 37.1568 68.2606 37.3833 68.2606 37.6755C68.2606 37.9678 68.3356 38.1943 68.4858 38.3551C68.6359 38.5133 68.8289 38.5924 69.0648 38.5924C69.2444 38.5924 69.3972 38.5482 69.5232 38.4597C69.6519 38.3685 69.7283 38.2506 69.7525 38.1058H70.3556C70.3288 38.4088 70.1961 38.6527 69.9575 38.8377C69.7216 39.0227 69.4241 39.1152 69.0648 39.1152ZM72.8102 36.2681H73.4174V39.083H72.8102V37.9048H71.6521V39.083H71.0489V36.2681H71.6521V37.386H72.8102V36.2681ZM76.1027 39.083L75.8816 38.4677H74.8642L74.643 39.083H74.0157L75.0854 36.2681H75.6604L76.7301 39.083H76.1027ZM75.0451 37.9611H75.7006L75.3749 37.0482L75.0451 37.9611ZM77.3001 39.083V36.2681H77.9435L79.0735 38.1299V36.2681H79.6767V39.083H79.0333L77.9033 37.2211V39.083H77.3001ZM81.7786 39.1152C81.3926 39.1152 81.0655 38.9892 80.7974 38.7372C80.5293 38.4852 80.3953 38.1313 80.3953 37.6755C80.3953 37.3672 80.4637 37.1018 80.6004 36.8793C80.7371 36.6568 80.9114 36.4946 81.1232 36.3928C81.3349 36.2882 81.5682 36.2359 81.8229 36.2359C82.1767 36.2359 82.4689 36.3298 82.6995 36.5174C82.93 36.7051 83.0547 36.9504 83.0735 37.2533H82.4743C82.4529 37.1005 82.3832 36.9799 82.2652 36.8914C82.1472 36.8002 81.9984 36.7547 81.8188 36.7547C81.5722 36.7547 81.3684 36.8378 81.2076 37.004C81.0494 37.1675 80.9703 37.3914 80.9703 37.6755C80.9703 37.9597 81.0494 38.1889 81.2076 38.3632C81.3684 38.5374 81.5682 38.6246 81.8068 38.6246C81.981 38.6246 82.1405 38.5723 82.2853 38.4677C82.4301 38.3605 82.5024 38.2412 82.5024 38.1098C82.5024 38.0348 82.4649 37.9972 82.3899 37.9972H81.847V37.5428H82.611C82.7397 37.5428 82.8469 37.5884 82.9327 37.6796C83.0212 37.768 83.0654 37.8739 83.0654 37.9972V39.083H82.5306V38.6527C82.485 38.7921 82.3925 38.9047 82.2531 38.9905C82.1164 39.0736 81.9582 39.1152 81.7786 39.1152ZM83.8419 39.083V36.2681H85.756V36.7868H84.4451V37.382H85.4906V37.9048H84.4451V38.5602H85.8003V39.083H83.8419Z" fill="black"/>
<g clip-path="url(#clip0_634_1821)">
<path d="M14.9312 17.8452L13.3574 16.0821V29.6068L14.7881 30.3937L14.9312 17.8452Z" fill="#2742C6"/>
<path d="M20.0458 17.8944L21.6196 16.1313V29.6559L20.1889 30.4428L20.0458 17.8944Z" fill="#2742C6"/>
<path d="M20.2426 8.63875L21.8164 7.082V14.4317L20.2426 16.2296V8.63875Z" fill="#2742C6"/>
<path d="M22.2588 14.0657V12.3935L27.767 6.73776L28.6031 7.72138L22.2588 14.0657Z" fill="#2742C6"/>
<path d="M12.8652 14.0657V12.3935L7.357 6.73776L6.52092 7.72138L12.8652 14.0657Z" fill="#2742C6"/>
<path d="M5.48833 14.8526C5.48833 13.9291 4.73969 13.1804 3.81619 13.1804C2.89269 13.1804 2.14404 13.9291 2.14404 14.8526C2.14404 15.7761 2.89269 16.5247 3.81619 16.5247C4.73969 16.5247 5.48833 15.7761 5.48833 14.8526ZM3.26723 14.8526C3.26723 14.5494 3.51301 14.3036 3.81619 14.3036C4.11937 14.3036 4.36514 14.5494 4.36514 14.8526C4.36514 15.1558 4.11937 15.4015 3.81619 15.4015C3.51301 15.4015 3.26723 15.1558 3.26723 14.8526Z" fill="#2742C6"/>
<path d="M5.68511 20.7542C5.68511 19.8307 4.93646 19.0821 4.01296 19.0821C3.08946 19.0821 2.34082 19.8307 2.34082 20.7542C2.34082 21.6777 3.08946 22.4264 4.01296 22.4264C4.93646 22.4264 5.68511 21.6777 5.68511 20.7542ZM3.46401 20.7542C3.46401 20.4511 3.70978 20.2053 4.01296 20.2053C4.31615 20.2053 4.56192 20.4511 4.56192 20.7542C4.56192 21.0574 4.31615 21.3032 4.01296 21.3032C3.70978 21.3032 3.46401 21.0574 3.46401 20.7542Z" fill="#2742C6"/>
<path d="M19.3574 2.16394C19.3574 1.13179 18.5206 0.295072 17.4885 0.295072C16.4563 0.295072 15.6196 1.13179 15.6196 2.16394C15.6196 3.19609 16.4563 4.03281 17.4885 4.03281C18.5206 4.03281 19.3574 3.19609 19.3574 2.16394ZM16.875 2.16394C16.875 1.82509 17.1496 1.5504 17.4885 1.5504C17.8273 1.5504 18.102 1.82509 18.102 2.16394C18.102 2.50279 17.8273 2.77748 17.4885 2.77748C17.1496 2.77748 16.875 2.50279 16.875 2.16394Z" fill="#2742C6"/>
<path d="M11.3898 27.3445C11.3898 26.5296 10.7292 25.869 9.91439 25.869C9.09953 25.869 8.43896 26.5296 8.43896 27.3445C8.43896 28.1593 9.09953 28.8199 9.91439 28.8199C10.7292 28.8199 11.3898 28.1593 11.3898 27.3445ZM9.43001 27.3445C9.43001 27.077 9.64687 26.8601 9.91439 26.8601C10.1819 26.8601 10.3988 27.077 10.3988 27.3445C10.3988 27.612 10.1819 27.8288 9.91439 27.8288C9.64687 27.8288 9.43001 27.612 9.43001 27.3445Z" fill="#2742C6"/>
<path d="M26.5378 27.3445C26.5378 26.5296 25.8772 25.869 25.0623 25.869C24.2475 25.869 23.5869 26.5296 23.5869 27.3445C23.5869 28.1593 24.2475 28.8199 25.0623 28.8199C25.8772 28.8199 26.5378 28.1593 26.5378 27.3445ZM24.578 27.3445C24.578 27.077 24.7948 26.8601 25.0623 26.8601C25.3298 26.8601 25.5467 27.077 25.5467 27.3445C25.5467 27.612 25.3298 27.8288 25.0623 27.8288C24.7948 27.8288 24.578 27.612 24.578 27.3445Z" fill="#2742C6"/>
<path d="M30.3737 6.0984C30.3737 5.28355 29.7131 4.62298 28.8983 4.62298C28.0834 4.62298 27.4229 5.28355 27.4229 6.0984C27.4229 6.91325 28.0834 7.57382 28.8983 7.57382C29.7131 7.57382 30.3737 6.91325 30.3737 6.0984ZM28.4139 6.0984C28.4139 5.83089 28.6308 5.61403 28.8983 5.61403C29.1658 5.61403 29.3826 5.83089 29.3826 6.0984C29.3826 6.36591 29.1658 6.58277 28.8983 6.58277C28.6308 6.58277 28.4139 6.36591 28.4139 6.0984Z" fill="#2742C6"/>
<path d="M7.45573 6.0984C7.45573 5.28355 6.79516 4.62298 5.9803 4.62298C5.16545 4.62298 4.50488 5.28355 4.50488 6.0984C4.50488 6.91325 5.16545 7.57382 5.9803 7.57382C6.79516 7.57382 7.45573 6.91325 7.45573 6.0984ZM5.49593 6.0984C5.49593 5.83089 5.71279 5.61403 5.9803 5.61403C6.24782 5.61403 6.46468 5.83089 6.46468 6.0984C6.46468 6.36591 6.24782 6.58277 5.9803 6.58277C5.71279 6.58277 5.49593 6.36591 5.49593 6.0984Z" fill="#2742C6"/>
<path d="M14.9308 6.68858C14.9308 5.87373 14.2703 5.21316 13.4554 5.21316C12.6405 5.21316 11.98 5.87373 11.98 6.68858C11.98 7.50343 12.6405 8.164 13.4554 8.164C14.2703 8.164 14.9308 7.50343 14.9308 6.68858ZM12.971 6.68858C12.971 6.42107 13.1879 6.20421 13.4554 6.20421C13.7229 6.20421 13.9398 6.42107 13.9398 6.68858C13.9398 6.95609 13.7229 7.17295 13.4554 7.17295C13.1879 7.17295 12.971 6.95609 12.971 6.68858Z" fill="#2742C6"/>
<path d="M22.9967 6.68858C22.9967 5.87373 22.3362 5.21316 21.5213 5.21316C20.7065 5.21316 20.0459 5.87373 20.0459 6.68858C20.0459 7.50343 20.7065 8.164 21.5213 8.164C22.3362 8.164 22.9967 7.50343 22.9967 6.68858ZM21.0369 6.68858C21.0369 6.42107 21.2538 6.20421 21.5213 6.20421C21.7888 6.20421 22.0057 6.42107 22.0057 6.68858C22.0057 6.95609 21.7888 7.17295 21.5213 7.17295C21.2538 7.17295 21.0369 6.95609 21.0369 6.68858Z" fill="#2742C6"/>
<path d="M22.2588 19.3772V17.6067L27.1769 14.4591H29.7343V15.9837H27.9146L22.2588 19.3772Z" fill="#2742C6"/>
<path d="M12.8164 19.3772V17.6067L7.89833 14.4591H5.34094V15.9837H7.16062L12.8164 19.3772Z" fill="#2742C6"/>
<path d="M26.7342 20.2625L22.2588 23.9018V26.3609L27.2752 21.7379H29.5375V20.2625H26.7342Z" fill="#2742C6"/>
<path d="M8.29165 20.2625L12.7671 23.9018V26.3609L7.75066 21.7379H5.48835V20.2625H8.29165Z" fill="#2742C6"/>
<path d="M14.9312 8.63875L13.3574 7.082V14.4317L14.9312 16.2296V8.63875Z" fill="#2742C6"/>
<path d="M32.5376 20.7542C32.5376 19.8307 31.789 19.0821 30.8655 19.0821C29.942 19.0821 29.1934 19.8307 29.1934 20.7542C29.1934 21.6777 29.942 22.4264 30.8655 22.4264C31.789 22.4264 32.5376 21.6777 32.5376 20.7542ZM30.3165 20.7542C30.3165 20.4511 30.5623 20.2053 30.8655 20.2053C31.1687 20.2053 31.4145 20.4511 31.4145 20.7542C31.4145 21.0574 31.1687 21.3032 30.8655 21.3032C30.5623 21.3032 30.3165 21.0574 30.3165 20.7542Z" fill="#2742C6"/>
<path d="M32.7344 14.7542C32.7344 13.8307 31.9858 13.0821 31.0623 13.0821C30.1388 13.0821 29.3901 13.8307 29.3901 14.7542C29.3901 15.6777 30.1388 16.4264 31.0623 16.4264C31.9858 16.4264 32.7344 15.6777 32.7344 14.7542ZM30.5133 14.7542C30.5133 14.451 30.7591 14.2053 31.0623 14.2053C31.3655 14.2053 31.6112 14.451 31.6112 14.7542C31.6112 15.0574 31.3655 15.3032 31.0623 15.3032C30.7591 15.3032 30.5133 15.0574 30.5133 14.7542Z" fill="#2742C6"/>
<rect x="16.7017" y="4.62299" width="1.47542" height="29.5084" fill="#2742C6"/>
</g>
<path d="M40.5718 30.4755H36.7832V9.41746H40.5718V30.4755Z" fill="black"/>
<path d="M45.5474 25.3925L49.2097 24.6032C49.3991 25.3609 49.778 26.7185 51.6723 27.3184C52.7141 27.6656 53.5981 27.7288 54.2927 27.7288C57.7971 27.7288 58.4917 25.8977 58.4917 24.9505C58.4917 22.9615 56.8499 22.4564 55.9028 22.2038L51.1987 21.0041C48.1363 20.2148 46.6524 18.068 46.6524 15.3844C46.6524 11.4064 49.8727 9.10175 54.1032 9.10175C56.187 9.10175 58.2391 9.63846 59.8808 10.9329C61.1436 11.9432 61.4594 12.9534 61.6488 13.648L58.0497 14.5636C57.7971 13.8374 57.1657 12.1642 54.1664 12.1642C51.2618 12.1642 50.5357 13.7112 50.5357 14.7846C50.5357 16.4263 52.3984 17.0261 53.4718 17.3103L57.0394 18.1943C58.8389 18.6678 62.5012 19.6781 62.5012 24.1928C62.5012 28.3602 58.9337 30.7912 54.1348 30.7912C51.6091 30.7912 49.3991 30.1913 47.6627 28.8022C46.242 27.6656 45.8631 26.3712 45.5474 25.3925Z" fill="black"/>
<path d="M81.9582 30.4755H68.2879V9.41746H81.8319V12.543H72.0764V18.2574H79.9061V21.3198H72.0764V27.2236H81.9582V30.4755Z" fill="black"/>
<path d="M40.5718 30.4755H36.7832V9.41746H40.5718V30.4755Z" stroke="black" stroke-width="2.06886"/>
<path d="M45.5474 25.3925L49.2097 24.6032C49.3991 25.3609 49.778 26.7185 51.6723 27.3184C52.7141 27.6656 53.5981 27.7288 54.2927 27.7288C57.7971 27.7288 58.4917 25.8977 58.4917 24.9505C58.4917 22.9615 56.8499 22.4564 55.9028 22.2038L51.1987 21.0041C48.1363 20.2148 46.6524 18.068 46.6524 15.3844C46.6524 11.4064 49.8727 9.10175 54.1032 9.10175C56.187 9.10175 58.2391 9.63846 59.8808 10.9329C61.1436 11.9432 61.4594 12.9534 61.6488 13.648L58.0497 14.5636C57.7971 13.8374 57.1657 12.1642 54.1664 12.1642C51.2618 12.1642 50.5357 13.7112 50.5357 14.7846C50.5357 16.4263 52.3984 17.0261 53.4718 17.3103L57.0394 18.1943C58.8389 18.6678 62.5012 19.6781 62.5012 24.1928C62.5012 28.3602 58.9337 30.7912 54.1348 30.7912C51.6091 30.7912 49.3991 30.1913 47.6627 28.8022C46.242 27.6656 45.8631 26.3712 45.5474 25.3925Z" stroke="black" stroke-width="2.06886"/>
<path d="M81.9582 30.4755H68.2879V9.41746H81.8319V12.543H72.0764V18.2574H79.9061V21.3198H72.0764V27.2236H81.9582V30.4755Z" stroke="black" stroke-width="2.06886"/>
<defs>
<clipPath id="clip0_634_1821">
<rect width="34.4265" height="34.4265" fill="white" transform="translate(0.176758)"/>
</clipPath>
</defs>
</svg>
