<svg width="132" height="57" viewBox="0 0 132 57" fill="none" xmlns="http://www.w3.org/2000/svg">
<path d="M14.0633 1.30894C11.0719 2.31355 6.33929 5.70673 3.45954 8.89904C2.14244 10.3502 0.959288 12.2922 0.691397 13.4309C0.535129 14.1674 1.13787 14.9934 2.25406 15.5292C3.03538 15.8864 3.08003 15.8864 3.66044 15.4845C3.97299 15.2391 4.41945 14.5693 4.6427 13.9666C5.42402 11.8681 7.52245 9.56879 11.0942 6.86758C13.5945 4.99237 17.1216 3.31817 17.5905 3.78689C17.8584 4.05476 16.1171 7.3587 12.9471 12.6271C9.91109 17.717 8.01357 21.2664 5.17846 27.1376C2.78982 32.1157 2.12011 33.8793 2.12011 35.2188C2.12011 35.8215 2.27639 36.067 3.05771 36.6251C4.86593 37.9422 5.29009 37.5403 8.16984 31.9818C12.0095 24.5704 15.2688 18.5652 16.2288 17.1141C17.4342 15.3059 22.6802 10.1491 24.3098 9.1893C25.7385 8.34092 26.2744 8.40793 26.4083 9.45717C26.4975 10.2385 24.5108 14.6139 19.5103 24.6372C15.2018 33.2319 15.0455 33.7231 15.9831 34.9285C16.5413 35.6429 17.5235 36.1786 18.2602 36.1786C19.3093 36.1786 20.2693 34.6383 25.1804 25.1283C27.1227 21.311 29.2211 17.4044 29.8239 16.4221C31.1186 14.2791 34.1323 10.3948 35.003 9.74742C35.561 9.34554 35.6504 9.32315 35.9629 9.65802C36.521 10.2161 36.6102 11.8681 36.1637 13.2298C35.5164 15.2167 33.7081 19.0341 31.1856 23.722C28.529 28.7001 27.7254 30.5083 27.3683 32.4282C26.9888 34.482 27.7032 36 29.422 36.826C31.2526 37.719 32.7259 37.3841 34.6458 35.6429L35.7842 34.616L36.2531 35.3526C36.8112 36.2902 38.2176 37.0716 39.289 37.0716C40.3383 37.0716 41.2536 36.6251 42.526 35.5535L43.5083 34.6829L44.0217 35.7767C44.8923 37.6743 46.7675 37.9198 48.6427 36.3572C49.6249 35.5535 53.7103 30.4861 55.3174 28.0974C56.0096 27.0482 56.6123 26.3786 56.8132 26.4232C57.5275 26.5348 57.2597 27.45 55.9202 29.5039C55.1836 30.6647 54.4468 31.9595 54.313 32.4282C53.6432 34.7053 55.5407 37.2055 58.1527 37.4733C59.6706 37.6073 60.4074 37.2502 61.9253 35.5983L63.2202 34.1695L63.3764 35.0848C63.4881 35.7321 63.7782 36.2679 64.2917 36.7814C65.0506 37.5403 65.1176 37.5627 66.524 37.4733C67.5956 37.4065 68.1537 37.2502 68.6671 36.8706L69.3814 36.3349L68.2876 38.3217C67.7072 39.4155 66.9482 40.7773 66.6356 41.3578C66.1223 42.34 66.0106 42.4292 64.6265 42.7641C59.9385 43.925 56.8802 47.0057 56.1212 51.3364C55.5185 54.752 56.9248 56.7165 59.9609 56.7165C61.5012 56.7165 62.4834 56.203 64.0684 54.5956C65.1623 53.5018 65.8096 52.4973 67.5286 49.1934L69.6493 45.1528L70.5423 45.0188C71.0334 44.9518 74.4713 44.8402 78.177 44.7509C84.8071 44.5947 84.9411 44.6169 86.727 45.1304C88.7138 45.6886 89.2495 45.5992 89.3611 44.6393C89.4505 43.9696 88.1781 41.6256 87.5529 41.2462C87.1958 41.0451 85.1198 40.9783 79.5387 40.9783C72.105 40.9783 72.038 40.9783 72.2613 40.5318C72.9756 39.1701 76.4804 33.0979 78.244 30.1512C80.3201 26.7135 81.8158 23.8336 81.8158 23.2755C81.8158 23.0969 81.548 22.4719 81.2131 21.8692C80.7442 20.9986 80.5209 20.7753 80.0522 20.7753C79.2486 20.7975 78.6457 21.3334 77.7975 22.896C75.6991 26.6464 71.8594 31.7586 69.9395 33.2766C68.0421 34.7723 66.8588 34.2812 68.1759 32.5398C70.1852 29.8388 71.8594 27.1152 72.2389 25.8651C72.6407 24.5926 72.6407 24.414 72.3283 23.1417C71.8594 21.3334 71.5469 21.0208 70.5869 21.4227C68.7565 22.204 66.0329 23.0076 64.7828 23.1863C63.2202 23.3649 63.1978 23.4317 63.9568 25.1953C64.4033 26.1553 65.0284 26.5794 66.1223 26.5794H66.6802L65.9659 27.8741C64.8052 29.928 61.9477 33.8793 61.0101 34.7277C60.2957 35.375 60.0725 35.4866 59.7152 35.2856C58.934 34.8615 59.1795 33.9909 60.586 32.1827C62.171 30.1066 62.6173 29.2806 62.6173 28.3206C62.6173 27.1598 61.9031 26.2446 60.2957 25.3516C58.5768 24.3917 58.4875 24.0793 59.492 22.4941C60.3628 21.0878 60.3628 20.4627 59.4698 20.1056C59.0903 19.9493 58.3759 19.4804 57.8848 19.0563C57.3937 18.6545 56.8132 18.3198 56.5899 18.3198C55.7639 18.3198 54.5809 20.7753 54.5809 22.4273C54.5809 22.8068 54.8041 23.5658 55.0496 24.1015L55.4961 25.1061L54.4246 26.6687C52.8619 28.968 50.1161 32.3613 49.0446 33.3436C48.1292 34.1472 47.1694 34.415 46.8791 33.9463C46.7453 33.7231 48.174 30.754 49.3125 28.9904C50.875 26.4902 53.2414 22.137 53.2414 21.6905C53.2414 21.0654 52.594 20.7753 51.2545 20.7753C50.1161 20.7753 50.1161 20.7753 49.0892 22.1594C48.0176 23.6104 47.6605 23.9452 47.6605 23.4095C47.6605 22.5835 45.4504 21.4451 43.8654 21.4451C42.794 21.4451 41.0526 22.0924 39.9812 22.896C37.7711 24.615 35.5164 28.8342 35.2261 31.8478C35.0923 33.2095 35.0476 33.3436 34.0876 34.1695C32.7929 35.308 32.034 35.4196 31.2972 34.549C30.5382 33.656 31.2526 31.4013 33.4849 27.6509C35.2261 24.7488 38.5524 18.0965 39.289 16.0873C40.0034 14.1004 40.2714 11.4216 39.8471 10.1939C39.3114 8.54195 37.8381 7.38109 36.2753 7.38109C34.6234 7.38109 33.0384 8.65357 30.9401 11.6449C30.0917 12.8281 29.8239 13.1182 29.9577 12.6271C30.0471 12.2476 30.1363 11.243 30.1363 10.3724C30.1363 9.01067 30.0471 8.69819 29.5336 8.00605C28.4621 6.59972 26.4083 5.97459 24.6001 6.4881C24.0644 6.62211 22.8365 7.33647 21.8767 8.07306C20.2469 9.30093 19.7558 9.56879 19.7558 9.27853C19.7558 9.21153 20.0684 8.51956 20.4702 7.76058C21.6534 5.43886 21.3855 3.31817 19.7112 1.91184C18.0592 0.527733 16.7645 0.371493 14.0633 1.30894ZM46.0978 23.9006C47.0802 24.4364 47.0354 24.8382 45.7631 27.2714C45.1155 28.5439 44.3119 30.2851 43.9995 31.1335C43.553 32.2719 43.1735 32.8971 42.4813 33.4774C39.9588 35.6875 38.2846 35.9108 38.2846 34.0355C38.2846 32.9641 39.1106 30.4415 39.9812 28.8788C40.9188 27.2046 42.7492 25.1507 44.0663 24.3025C45.1603 23.6104 45.4728 23.5658 46.0978 23.9006ZM63.9568 46.5592C63.9568 46.6038 63.287 47.8987 62.4834 49.4166C60.8315 52.5643 59.3135 54.3277 58.6438 53.9036C58.0633 53.5241 58.041 52.1624 58.6214 50.957C59.2687 49.6175 61.0993 47.787 62.5281 47.0503C63.6219 46.4699 63.9568 46.3583 63.9568 46.5592Z" fill="#202020"/>
<path d="M51.5454 2.9163C50.0721 3.22895 48.3531 4.21117 47.17 5.41665C46.3216 6.28725 46.0984 6.4211 46.0984 6.064C46.0984 5.23801 45.6967 5.34964 44.558 6.48811C43.0177 8.02845 42.0355 10.1491 41.9016 12.1806C41.8122 13.788 42.1695 15.7302 42.5266 15.5962C42.6382 15.5516 44.0001 14.3907 45.5404 13.0066C47.5495 11.1762 48.6209 10.0153 49.4247 8.7652C50.898 6.46588 51.4115 5.86314 50.5856 7.40349C50.2061 8.09546 49.8934 8.83205 49.8934 9.03307C49.8934 9.36794 49.9604 9.36794 50.7418 9.03307C51.8803 8.56418 54.9832 7.82759 55.8092 7.84982C56.2781 7.84982 55.9432 8.02845 54.7377 8.38571C53.7777 8.65358 52.9295 8.94367 52.8625 9.01068C52.6392 9.25632 53.0411 9.59119 53.8671 9.83666C55.3851 10.3278 55.1396 10.5064 53.5769 10.0599C51.6124 9.50179 50.9204 9.68042 48.9336 11.1762C48.1076 11.8011 47.4379 12.3592 47.4379 12.4039C47.4379 12.7165 48.7326 13.2522 50.1613 13.5201L51.791 13.8103L48.9558 13.6987L46.0984 13.5647L45.2055 14.5469C44.7144 15.0828 44.0223 15.9088 43.7098 16.3999L43.1071 17.2481L43.6204 17.6722C45.1832 18.9447 51.2329 19.101 52.7955 17.8955C53.3314 17.4938 53.3982 17.2705 53.2198 16.5562C53.1527 16.3105 53.4652 16.1767 54.3582 16.0427C55.8762 15.8194 58.9346 14.3461 59.8275 13.4309L60.4748 12.7387L59.8721 12.136L59.2917 11.5332L60.8097 10.9529C62.3947 10.3278 64.4931 9.05529 65.2075 8.2517C65.6318 7.78298 65.6318 7.78298 64.5377 6.80059C62.3054 4.85853 58.756 3.65305 55.9432 3.89852C54.5369 4.01015 54.5369 4.01015 54.9163 3.58604C55.1396 3.34057 55.2734 3.09493 55.2064 3.02792C54.9832 2.80468 52.4384 2.71544 51.5454 2.9163Z" fill="#202020"/>
<path d="M125.572 8.98844C122.401 10.7072 122.446 15.4175 125.661 16.9803C127.759 17.9849 130.371 17.1589 131.42 15.1274C132.068 13.8772 132.09 12.0467 131.465 10.8413C130.393 8.76519 127.648 7.89442 125.572 8.98844ZM129.009 9.7028C130.527 10.3278 131.42 12.27 130.952 13.8996C130.17 16.4891 127.157 17.3597 125.259 15.5739C122.357 12.8281 125.326 8.16245 129.009 9.7028Z" fill="#202020"/>
<path d="M126.017 12.8503C126.017 15.2613 126.039 15.4175 126.463 15.4175C126.843 15.4175 126.909 15.2613 126.909 14.4131C126.909 13.6541 126.999 13.4085 127.244 13.4085C127.423 13.4085 127.802 13.8549 128.07 14.4131C128.45 15.172 128.695 15.4175 129.075 15.4175C129.7 15.4175 129.7 15.3953 129.12 14.2791C128.718 13.4755 128.695 13.3192 128.986 13.0066C129.41 12.5155 129.499 12.1137 129.298 11.3546C129.12 10.685 128.227 10.2831 126.887 10.2831H126.017V12.8503ZM128.361 11.9573C128.361 12.2922 128.182 12.4262 127.646 12.4708C126.976 12.5378 126.909 12.4932 126.909 11.9573C126.909 11.4216 126.976 11.377 127.646 11.444C128.182 11.4886 128.361 11.6226 128.361 11.9573Z" fill="#202020"/>
<path d="M93.3124 22.1594C92.7543 22.9184 92.3078 23.6328 92.3078 23.722C92.3078 24.1239 91.9507 23.8336 91.638 23.1863C91.0353 21.9362 90.2763 21.5567 88.3343 21.5789C86.9055 21.5789 86.4144 21.6905 85.4098 22.204C82.6862 23.6104 80.4093 26.8251 79.6725 30.3745C78.8243 34.4374 80.186 36.9376 83.4006 37.2502C84.2713 37.3395 84.7401 37.2279 85.7223 36.759C86.392 36.4243 87.1288 35.8884 87.3743 35.5983L87.8208 35.0402L88.2673 35.9108C88.5127 36.3795 88.8254 36.8706 89.0038 37.0046C89.9861 37.786 91.5712 37.4733 93.0222 36.201L94.0268 35.308L94.4063 35.9778C95.1206 37.1832 96.6163 37.6073 97.844 36.9822C98.8711 36.4465 99.5854 35.4867 100.791 33.0757C102.867 28.9012 105.144 25.9321 106.796 25.24C107.957 24.7712 108.091 25.24 107.131 26.4902C104.854 29.4593 103.47 32.473 103.47 34.5044C103.47 35.5313 103.559 35.8215 104.162 36.5135C104.564 36.9822 105.211 37.3841 105.724 37.5181C106.751 37.8082 107.332 37.5627 109.318 36.0448C110.546 35.0848 110.993 34.8391 110.725 35.2634C110.502 35.6651 111.127 36.6027 111.796 36.8706C112.622 37.2055 113.739 37.2055 114.364 36.8706C114.632 36.7367 115.569 35.6429 116.44 34.4374C120.012 29.6155 124.03 24.9721 124.342 25.2847C124.432 25.3516 124.008 26.1553 123.427 27.0483C120.704 31.2897 119.833 33.7901 120.436 35.5983C120.882 36.96 122.735 37.8306 124.32 37.4287C125.034 37.2503 128.651 34.0133 129.477 32.8301C130.102 31.9371 130.124 30.821 129.544 30.821C129.41 30.821 128.294 31.6246 127.088 32.6068C125.883 33.589 124.789 34.3928 124.677 34.3928C123.985 34.3928 125.012 32.3166 127.043 29.6378C129.521 26.3786 129.544 24.2801 127.177 22.7622C125.994 22.0254 124.231 21.8692 123.137 22.4495C122.78 22.6282 121.641 23.6774 120.57 24.8159C119.52 25.9321 118.65 26.8027 118.65 26.7357C118.65 26.6687 119.007 26.1107 119.431 25.4632C120.413 24.0123 120.48 22.9184 119.654 21.9138C118.918 21.0656 118.382 20.8869 117.601 21.2888C117.132 21.5567 116.306 22.8514 114.207 26.7135C112.689 29.5261 111.238 32.0935 111.015 32.4282C110.613 33.0309 108.47 34.3928 107.935 34.3928C107.399 34.3928 107.957 33.1649 109.653 30.6424C111.64 27.6957 112.042 26.6687 111.863 25.1731C111.64 23.1417 110.435 22.2041 108.314 22.3827C106.461 22.5389 105.256 23.2533 103.693 25.1285C102.934 26.0437 102.22 26.8027 102.108 26.8027C101.996 26.8027 102.22 26.1776 102.599 25.4186C103.559 23.4988 103.581 22.4943 102.621 21.6459C102.22 21.2888 101.661 20.9986 101.349 20.9986C100.701 20.9986 100.568 21.1994 97.7772 26.2446C95.4109 30.5084 94.7857 31.4684 93.357 32.9863C92.1739 34.2588 91.1917 34.5713 91.1917 33.7231C91.1917 33.1873 94.3392 27.4054 95.9688 24.9053C97.5092 22.5835 97.7102 22.1817 97.6208 21.6013C97.554 21.0432 96.9288 20.8199 95.3885 20.7976C94.3392 20.7753 94.317 20.7976 93.3124 22.1594ZM90.6336 24.2355C91.3032 24.8829 91.3256 25.1061 90.7452 25.9097C90.0755 26.8473 88.5351 30.1289 88.1556 31.4237C87.8654 32.4506 87.6199 32.7631 86.1464 33.9463C84.2266 35.4867 83.423 35.6651 82.7978 34.7053C82.4407 34.1696 82.4407 34.0355 82.7756 32.4506C83.5346 28.9904 85.9232 25.4632 88.3343 24.2577C89.763 23.5434 89.9638 23.5434 90.6336 24.2355Z" fill="#202020"/>
</svg>
