<svg width="32" height="33" viewBox="0 0 32 33" fill="none" xmlns="http://www.w3.org/2000/svg">
<path d="M4 15.0415C3.44772 15.0415 3 15.4892 3 16.0415C3 16.5938 3.44772 17.0415 4 17.0415V15.0415ZM28 17.0415C28.5523 17.0415 29 16.5938 29 16.0415C29 15.4892 28.5523 15.0415 28 15.0415V17.0415ZM4 7.0415C3.44772 7.0415 3 7.48922 3 8.0415C3 8.59379 3.44772 9.0415 4 9.0415V7.0415ZM28 9.0415C28.5523 9.0415 29 8.59379 29 8.0415C29 7.48922 28.5523 7.0415 28 7.0415V9.0415ZM4 23.0415C3.44772 23.0415 3 23.4892 3 24.0415C3 24.5938 3.44772 25.0415 4 25.0415V23.0415ZM28 25.0415C28.5523 25.0415 29 24.5938 29 24.0415C29 23.4892 28.5523 23.0415 28 23.0415V25.0415ZM4 17.0415H28V15.0415H4V17.0415ZM4 9.0415H28V7.0415H4V9.0415ZM4 25.0415H28V23.0415H4V25.0415Z" fill="black"/>
</svg>
