<svg width="309" height="53" viewBox="0 0 309 53" fill="none" xmlns="http://www.w3.org/2000/svg">
<mask id="mask0_634_3836" style="mask-type:luminance" maskUnits="userSpaceOnUse" x="0" y="0" width="309" height="53">
<path d="M308.399 0.113052H0.399414V52.174H308.399V0.113052Z" fill="white"/>
</mask>
<g mask="url(#mask0_634_3836)">
<path d="M24.8356 0.113052H17.8203V42.0583H24.8356V0.113052Z" fill="#1E1E1E"/>
<path fill-rule="evenodd" clip-rule="evenodd" d="M26.5342 52.1733L33.544 47.8294V11.515C31.4658 9.97398 29.0718 8.9132 26.5342 8.40915V52.1733Z" fill="#1E1E1E"/>
<path fill-rule="evenodd" clip-rule="evenodd" d="M9.08691 47.8515L16.1022 52.1951V8.43102C13.5645 8.92746 11.1684 9.98082 9.08691 11.5151V47.8515Z" fill="#1E1E1E"/>
<path fill-rule="evenodd" clip-rule="evenodd" d="M35.2432 2.10641V47.0706L38.501 45.0507C39.6674 44.2835 40.6217 43.2343 41.2758 42.0006C41.9296 40.7669 42.2619 39.3882 42.242 37.9919V16.756C42.2583 10.6312 35.2432 2.10641 35.2432 2.10641Z" fill="#1E1E1E"/>
<path fill-rule="evenodd" clip-rule="evenodd" d="M0.400385 37.9756C0.37901 39.3723 0.710726 40.7513 1.36475 41.9852C2.01878 43.2195 2.97391 44.2681 4.14151 45.0344L7.3994 47.0543V2.10641C7.3994 2.10641 0.400385 10.6312 0.400385 16.756V37.9756Z" fill="#1E1E1E"/>
<path fill-rule="evenodd" clip-rule="evenodd" d="M210.36 42.5522V9.47398L215.421 7.34547V42.5522H210.36ZM202.389 28.6956C202.415 27.8029 202.25 26.9153 201.904 26.0921C201.559 25.2689 201.041 24.5291 200.385 23.9227C199.086 22.7389 197.381 22.1011 195.623 22.1417C193.884 22.0934 192.197 22.7334 190.927 23.9227C189.628 25.1834 188.852 26.8879 188.755 28.6956H202.389ZM195.526 42.9487C191.967 42.9487 189.071 41.8049 186.838 39.517C184.605 37.2294 183.495 34.1939 183.51 30.4111C183.51 26.6323 184.637 23.6041 186.892 21.3272C189.148 19.0503 192.063 17.9155 195.64 17.9227C199.22 17.9227 202.116 19.0087 204.328 21.1806C206.539 23.3525 207.652 26.205 207.667 29.738C207.671 30.5324 207.611 31.3259 207.488 32.1107H188.7C188.729 33.926 189.473 35.6564 190.769 36.927C192.053 38.1223 193.756 38.7624 195.509 38.7081C198.271 38.7081 200.215 37.5786 201.341 35.3198H206.82C206.104 37.545 204.689 39.4798 202.785 40.8364C200.656 42.303 198.11 43.0436 195.526 42.9487ZM163.691 18.3191V22.12C165.32 19.3073 167.931 17.901 171.526 17.901C172.79 17.8593 174.049 18.0789 175.225 18.546C176.4 19.0132 177.466 19.7178 178.357 20.6159C180.167 22.4259 181.072 24.9598 181.072 28.2176V42.5522H176.044V29.005C176.044 26.833 175.501 25.1697 174.415 24.015C173.83 23.4242 173.128 22.9639 172.353 22.6644C171.578 22.3649 170.749 22.233 169.919 22.2775C169.08 22.2282 168.24 22.3565 167.454 22.6541C166.668 22.9516 165.954 23.4116 165.358 24.0041C164.246 25.1589 163.691 26.8221 163.691 28.9941V42.5522H158.614V18.3191H163.691ZM149.177 42.5522V18.3191H154.254V42.5522H149.177ZM145.501 22.4078H139.528V35.8193C139.494 36.173 139.534 36.53 139.645 36.8674C139.756 37.2048 139.937 37.5153 140.174 37.7796C140.603 38.1758 141.336 38.3713 142.379 38.3713H145.496V42.5522H141.488C136.783 42.5522 134.43 40.308 134.43 35.8193V14.4151L139.55 12.292V18.3191H145.523L145.501 22.4078ZM114.719 18.3191V22.12C116.334 19.3218 118.951 17.9227 122.571 17.9227C123.836 17.8825 125.095 18.1028 126.271 18.5699C127.447 19.0369 128.514 19.7407 129.407 20.6376C131.217 22.4476 132.122 24.9815 132.122 28.2395V42.5522H127.088V29.005C127.088 26.833 126.545 25.1697 125.46 24.015C124.876 23.4242 124.173 22.9639 123.398 22.6644C122.623 22.3649 121.793 22.233 120.964 22.2775C120.121 22.2251 119.277 22.3519 118.487 22.6495C117.697 22.9471 116.98 23.4088 116.381 24.0041C115.27 25.1589 114.712 26.8221 114.708 28.9941V42.5522H109.637V18.3191H114.719ZM101.688 28.6956C101.714 27.8029 101.548 26.9153 101.203 26.0921C100.857 25.2689 100.339 24.5291 99.6842 23.9227C98.3741 22.7284 96.651 22.0898 94.8789 22.1417C93.1398 22.0934 91.452 22.7334 90.1822 23.9227C88.8807 25.1818 88.1048 26.8871 88.0102 28.6956H101.688ZM94.803 42.9487C91.2408 42.9487 88.3451 41.8049 86.1152 39.517C83.8855 37.2294 82.7742 34.1939 82.7812 30.4111C82.7812 26.6323 83.909 23.6041 86.1642 21.3272C88.4193 19.0503 91.3352 17.9155 94.9116 17.9227C98.4878 17.9227 101.384 19.0087 103.599 21.1806C105.815 23.3525 106.928 26.205 106.938 29.738C106.943 30.5324 106.883 31.3259 106.759 32.1107H87.9721C88.0001 33.9271 88.7458 35.6589 90.0464 36.927C91.3285 38.1246 93.0331 38.7649 94.7868 38.7081C97.545 38.7081 99.4888 37.5786 100.618 35.3198H106.091C105.376 37.545 103.961 39.4798 102.057 40.8364C99.929 42.3022 97.3852 43.0431 94.803 42.9487ZM69.5056 15.6802C68.1798 15.6207 66.8744 16.0238 65.8132 16.8205C65.3316 17.2239 64.9516 17.7348 64.7036 18.312C64.4555 18.8891 64.3466 19.5165 64.3852 20.1435C64.3566 20.7982 64.5 21.449 64.801 22.031C65.102 22.6131 65.5503 23.1061 66.101 23.4611C67.347 24.2737 68.7364 24.8412 70.1949 25.1335C71.7951 25.4955 73.3967 25.8992 75.0006 26.3444C76.5728 26.791 77.9868 27.6741 79.0782 28.891C80.2004 30.118 80.7632 31.8629 80.7669 34.1253C80.7705 36.3877 79.8059 38.4093 77.8728 40.1904C75.9433 41.9821 73.3626 42.8871 70.13 42.9053C66.8974 42.9232 64.2712 42.174 62.2513 40.6572C61.2727 39.9549 60.4837 39.0209 59.955 37.9387C59.4261 36.8565 59.1741 35.66 59.2214 34.4566H64.6512C64.7128 35.6858 65.2574 36.8411 66.166 37.671C67.0567 38.46 68.3634 38.8545 70.0866 38.8545C71.561 38.9377 73.0134 38.4673 74.1589 37.5352C74.9938 36.8061 75.5186 35.7855 75.6255 34.6823C75.7328 33.5788 75.4138 32.4764 74.7343 31.6003C74.0911 30.9011 73.28 30.3778 72.3778 30.0802C71.3342 29.7221 70.2722 29.4213 69.1959 29.1786C68.0375 28.9182 66.8719 28.6105 65.6992 28.2557C64.582 27.9275 63.5068 27.47 62.4955 26.8927C61.5012 26.3077 60.6847 25.463 60.1337 24.4494C59.4916 23.241 59.1772 21.8857 59.2214 20.5182C59.1803 19.2922 59.4219 18.0731 59.9273 16.9555C60.433 15.8378 61.1893 14.8515 62.1374 14.073C64.0811 12.4441 66.6042 11.6296 69.7063 11.6296C72.8087 11.6296 75.2864 12.3156 77.1398 13.6875C78.9967 15.0956 80.0285 17.1336 80.2349 19.8014H74.6256C74.5223 18.6594 73.9791 17.6021 73.1108 16.8531C72.0986 16.0239 70.8118 15.6053 69.5056 15.6802Z" fill="#1E1E1E"/>
<path fill-rule="evenodd" clip-rule="evenodd" d="M289.733 19.6979C288.07 19.6766 286.426 20.0487 284.934 20.7838C283.461 21.5259 282.235 22.6757 281.397 24.096C280.448 25.769 279.964 27.6668 279.997 29.591H299.04C299.211 27.6831 298.825 25.7665 297.926 24.0743C297.133 22.6423 295.924 21.4866 294.457 20.7621C292.987 20.0465 291.368 19.6822 289.733 19.6979ZM289.646 40.7165C291.833 40.791 293.986 40.1549 295.781 38.903C296.593 38.3245 297.279 37.5884 297.8 36.7383C298.318 35.8882 298.662 34.9421 298.805 33.9565H300.897C300.513 36.3804 299.217 38.565 297.271 40.0596C295.299 41.6016 292.788 42.3727 289.733 42.3727C287.619 42.413 285.53 41.9102 283.668 40.912C281.899 39.9418 280.448 38.4802 279.493 36.7041C278.44 34.6968 277.92 32.4534 277.983 30.1882C277.93 27.9499 278.449 25.7351 279.493 23.7539C280.445 21.981 281.89 20.5202 283.651 19.5458C285.516 18.5478 287.602 18.0449 289.716 18.0852C291.83 18.0312 293.925 18.535 295.781 19.5458C297.405 20.4393 298.743 21.7692 299.648 23.3847C300.516 24.936 300.967 26.6846 300.961 28.4615C300.955 29.2376 300.883 30.0119 300.74 30.7746H279.997C279.961 32.7197 280.445 34.6391 281.397 36.3348C282.223 37.7567 283.444 38.9077 284.911 39.6469C286.384 40.3674 288.005 40.7336 289.646 40.7165ZM264.913 17.9115C267.759 17.9115 270.072 18.7838 271.853 20.5286C273.634 22.2734 274.522 24.8453 274.519 28.2445V42.0687H272.521V28.3475C272.521 25.5023 271.793 23.325 270.349 21.8318C268.904 20.3386 266.912 19.5838 264.376 19.5838C263.209 19.5343 262.046 19.7322 260.961 20.1646C259.876 20.597 258.895 21.254 258.083 22.0924C256.497 23.7648 255.704 26.2282 255.704 29.4824V42.0687H253.706V18.3893H255.704V24.6281C256.18 22.5924 257.393 20.8049 259.109 19.611C260.824 18.4636 262.85 17.8703 264.913 17.9115ZM234.805 13.383C232.478 13.3498 230.183 13.9384 228.159 15.088C226.177 16.2277 224.558 17.9049 223.49 19.9259C222.307 22.1869 221.719 24.711 221.779 27.2617C221.721 29.8086 222.309 32.3286 223.49 34.5865C224.56 36.6064 226.178 38.2833 228.159 39.4243C230.193 40.5393 232.475 41.1239 234.794 41.1239C237.114 41.1239 239.396 40.5393 241.429 39.4243C243.42 38.2889 245.047 36.6109 246.121 34.5865C247.301 32.3286 247.89 29.8086 247.831 27.2617C247.89 24.7146 247.301 22.1945 246.121 19.9368C245.049 17.9109 243.421 16.2327 241.429 15.0988C239.412 13.9507 237.126 13.3586 234.805 13.383ZM234.805 11.5966C237.524 11.555 240.205 12.2411 242.57 13.5839C244.847 14.8846 246.711 16.8027 247.945 19.1169C249.265 21.6257 249.93 24.4272 249.878 27.2617C249.925 30.0849 249.26 32.8746 247.945 35.3738C246.707 37.6934 244.845 39.6209 242.57 40.9391C240.196 42.2565 237.526 42.9479 234.81 42.9479C232.096 42.9479 229.425 42.2565 227.051 40.9391C224.758 39.6212 222.878 37.69 221.622 35.3629C220.301 32.8701 219.635 30.0821 219.689 27.2617C219.635 24.4244 220.308 21.6206 221.643 19.1169C222.895 16.7914 224.777 14.8661 227.073 13.5622C229.43 12.2321 232.099 11.5537 234.805 11.5966Z" fill="#1E1E1E"/>
<path d="M306.355 21.5882L305.812 20.7683H305.366V21.5882H304.823V19.0199H305.996C306.604 19.0199 306.968 19.3402 306.968 19.867C306.976 20.0401 306.926 20.2112 306.828 20.3542C306.73 20.4972 306.59 20.6044 306.425 20.6597L307.055 21.5773L306.355 21.5882ZM306.355 19.8995C306.355 19.6552 306.187 19.5303 305.91 19.5303H305.366V20.2688H305.938C306.212 20.2688 306.372 20.1221 306.372 19.9049L306.355 19.8995Z" fill="#1E1E1E"/>
<path d="M305.77 23.0057C305.249 23.0068 304.739 22.8531 304.305 22.5642C303.871 22.2752 303.533 21.864 303.334 21.3826C303.135 20.9012 303.082 20.3712 303.183 19.8599C303.283 19.3485 303.535 18.8788 303.902 18.5101C304.272 18.1415 304.742 17.8906 305.255 17.7892C305.764 17.6877 306.293 17.7403 306.775 17.9403C307.257 18.1403 307.668 18.4787 307.957 18.9126C308.248 19.3465 308.399 19.8564 308.399 20.3777C308.399 21.0742 308.119 21.7419 307.629 22.2344C307.136 22.7269 306.467 23.0043 305.77 23.0057ZM305.77 18.3198C305.364 18.3198 304.966 18.4405 304.627 18.6666C304.289 18.8928 304.025 19.2142 303.869 19.5902C303.715 19.9662 303.673 20.38 303.754 20.7792C303.832 21.1784 304.028 21.5451 304.317 21.8329C304.605 22.1207 304.972 22.3167 305.369 22.3961C305.77 22.4755 306.181 22.4347 306.559 22.2789C306.935 22.1232 307.257 21.8594 307.483 21.521C307.707 21.1826 307.828 20.7847 307.828 20.3777C307.828 19.8319 307.612 19.3085 307.226 18.9226C306.839 18.5366 306.316 18.3198 305.77 18.3198Z" fill="#1E1E1E"/>
</g>
</svg>
