<svg width="73" height="16" viewBox="0 0 73 16" fill="none" xmlns="http://www.w3.org/2000/svg">
<g clip-path="url(#clip0_634_1022)">
<path d="M1.05615 0.358538H12.3183L11.284 3.61354H8.36415V15.4855H4.71015V3.61354H1.06403L1.05615 0.358538ZM30.7615 0.359413H42.2818L41.2484 3.61441H38.0765V15.4855H34.4295V3.61354H30.7685L30.7615 0.358538V0.359413ZM13.0025 5.17104H16.6145V15.4855H13.0305L13.0034 5.17104H13.0025ZM18.0478 0.317413H21.6528V7.36379L25.2289 3.87254H29.5322L25.0128 8.25716L30.0773 15.4847H26.1022L22.7212 10.4639L21.6519 11.4973V15.4847H18.0478V0.317413ZM54.9877 0.317413H58.6347V7.36379L62.2047 3.87254H66.5079L61.9877 8.25804L67.018 15.4855H63.0429L59.6689 10.4648L58.6347 11.4982V15.4855H55.0227L54.9877 0.317413ZM14.8129 3.99066C15.0561 3.99821 15.2983 3.95684 15.5252 3.86899C15.752 3.78115 15.959 3.64862 16.1336 3.47928C16.3083 3.30993 16.4472 3.10723 16.5421 2.88318C16.6369 2.65914 16.6858 2.41833 16.6858 2.17504C16.6858 1.93175 16.6369 1.69093 16.5421 1.46689C16.4472 1.24285 16.3083 1.04014 16.1336 0.8708C15.959 0.701457 15.752 0.568931 15.5252 0.481085C15.2983 0.393238 15.0561 0.351863 14.8129 0.359413C14.3411 0.374062 13.8936 0.571771 13.565 0.910667C13.2365 1.24956 13.0528 1.70303 13.0528 2.17504C13.0528 2.64704 13.2365 3.10051 13.565 3.43941C13.8936 3.77831 14.3411 3.97601 14.8129 3.99066ZM47.4653 12.3154C47.0665 12.3222 46.6705 12.2496 46.3001 12.1017C45.9297 11.9538 45.5925 11.7337 45.3082 11.4541C45.0238 11.1745 44.7979 10.8411 44.6437 10.4733C44.4895 10.1056 44.4101 9.71076 44.4101 9.31198C44.4101 8.91319 44.4895 8.51839 44.6437 8.15061C44.7979 7.78283 45.0238 7.44944 45.3082 7.16987C45.5925 6.8903 45.9297 6.67015 46.3001 6.52227C46.6705 6.37439 47.0665 6.30173 47.4653 6.30854C48.253 6.32198 49.0038 6.64433 49.5561 7.20612C50.1084 7.76791 50.4179 8.52418 50.4179 9.31198C50.4179 10.0998 50.1084 10.856 49.5561 11.4178C49.0038 11.9796 48.253 12.302 47.4653 12.3154ZM47.4653 3.13929C45.8279 3.13929 44.2576 3.78961 43.0996 4.94725C41.9416 6.10488 41.2909 7.67504 41.2904 9.31241C41.2905 10.1233 41.4503 10.9262 41.7608 11.6754C42.0712 12.4245 42.5261 13.1051 43.0996 13.6785C43.6731 14.2518 44.3539 14.7065 45.1031 15.0167C45.8523 15.3269 46.6553 15.4865 47.4662 15.4864C48.6872 15.486 49.8807 15.1237 50.8958 14.4452C51.9109 13.7666 52.702 12.8024 53.1693 11.6743C53.6365 10.5462 53.7587 9.30495 53.5206 8.10739C53.2825 6.90982 52.6947 5.80973 51.8315 4.94616C50.6732 3.78871 49.1028 3.13937 47.4653 3.13929Z" fill="black"/>
<path d="M70.1067 9.02805C70.9814 9.02805 71.6904 8.31898 71.6904 7.4443C71.6904 6.56962 70.9814 5.86055 70.1067 5.86055C69.232 5.86055 68.5229 6.56962 68.5229 7.4443C68.5229 8.31898 69.232 9.02805 70.1067 9.02805Z" fill="#FE2C55"/>
<path d="M70.1057 13.6209C70.9804 13.6209 71.6895 12.9118 71.6895 12.0372C71.6895 11.1625 70.9804 10.4534 70.1057 10.4534C69.231 10.4534 68.522 11.1625 68.522 12.0372C68.522 12.9118 69.231 13.6209 70.1057 13.6209Z" fill="#25F4EE"/>
</g>
<defs>
<clipPath id="clip0_634_1022">
<rect width="71.75" height="15.75" fill="white" transform="translate(0.810059 0.125)"/>
</clipPath>
</defs>
</svg>
