<svg width="16" height="18" viewBox="0 0 16 18" fill="none" xmlns="http://www.w3.org/2000/svg">
<g clip-path="url(#clip0_634_2570)">
<mask id="mask0_634_2570" style="mask-type:luminance" maskUnits="userSpaceOnUse" x="0" y="0" width="16" height="17">
<path d="M16 0.408203H0V16.4082H16V0.408203Z" fill="white"/>
</mask>
<g mask="url(#mask0_634_2570)">
<path d="M8.35041 0.421537C9.22374 0.408203 10.0904 0.41487 10.9571 0.408203C11.0104 1.4282 11.3771 2.4682 12.1237 3.1882C12.8704 3.9282 13.9237 4.2682 14.9504 4.38153V7.0682C13.9904 7.03487 13.0237 6.83487 12.1504 6.42153C11.7704 6.2482 11.4171 6.0282 11.0704 5.80153C11.0637 7.7482 11.0771 9.69487 11.0571 11.6349C11.0037 12.5682 10.6971 13.4949 10.1571 14.2616C9.28374 15.5416 7.77041 16.3749 6.21708 16.4016C5.26374 16.4549 4.31041 16.1949 3.49708 15.7149C2.15041 14.9216 1.20374 13.4682 1.06374 11.9082C1.05041 11.5749 1.04374 11.2416 1.05708 10.9149C1.17708 9.6482 1.80374 8.43487 2.77708 7.6082C3.88374 6.6482 5.43041 6.1882 6.87708 6.46153C6.89041 7.4482 6.85041 8.43487 6.85041 9.42153C6.19041 9.2082 5.41708 9.2682 4.83708 9.6682C4.41708 9.94153 4.09708 10.3616 3.93041 10.8349C3.79041 11.1749 3.83041 11.5482 3.83708 11.9082C3.99708 13.0016 5.05041 13.9216 6.17041 13.8216C6.91708 13.8149 7.63041 13.3816 8.01708 12.7482C8.14374 12.5282 8.28374 12.3016 8.29041 12.0416C8.35708 10.8482 8.33041 9.66153 8.33708 8.4682C8.34374 5.78153 8.33041 3.10153 8.35041 0.421537Z" fill="black"/>
</g>
</g>
<defs>
<clipPath id="clip0_634_2570">
<rect width="16" height="17" fill="white" transform="translate(0 0.273682)"/>
</clipPath>
</defs>
</svg>
