<svg width="16" height="17" viewBox="0 0 16 17" fill="none" xmlns="http://www.w3.org/2000/svg">
<g clip-path="url(#clip0_634_2585)">
<g clip-path="url(#clip1_634_2585)">
<path d="M15.9687 3.45525C15.3697 3.71899 14.7351 3.89308 14.0853 3.97192C14.7694 3.56075 15.2816 2.91595 15.5273 2.15659C14.8933 2.52659 14.1907 2.79592 13.4427 2.94592C12.9492 2.4182 12.2952 2.0682 11.5824 1.95025C10.8696 1.83231 10.1378 1.95302 9.50062 2.29365C8.86345 2.63427 8.35657 3.17575 8.0587 3.834C7.76083 4.49225 7.68864 5.23043 7.85333 5.93392C5.12667 5.80525 2.71133 4.49525 1.09333 2.51659C0.799196 3.01646 0.645776 3.5866 0.649333 4.16659C0.649333 5.30659 1.22933 6.30858 2.108 6.89725C1.58724 6.88068 1.07798 6.73988 0.622667 6.48658V6.52659C0.622371 7.28418 0.884179 8.01854 1.36367 8.60509C1.84316 9.19164 2.51081 9.59424 3.25333 9.74458C2.7722 9.87351 2.26828 9.89287 1.77867 9.80125C1.98941 10.4533 2.39844 11.0232 2.94868 11.4316C3.49891 11.84 4.1629 12.0664 4.848 12.0793C3.68769 12.9899 2.25498 13.4841 0.78 13.4826C0.52 13.4826 0.260667 13.4673 0 13.4379C1.50381 14.4008 3.25234 14.9119 5.038 14.9106C11.0733 14.9106 14.37 9.91325 14.37 5.58725C14.37 5.44725 14.37 5.30725 14.36 5.16725C15.004 4.70383 15.5595 4.12846 16 3.46859L15.9687 3.45525Z" fill="black"/>
</g>
</g>
<defs>
<clipPath id="clip0_634_2585">
<rect width="16" height="16" fill="white" transform="translate(0 0.273682)"/>
</clipPath>
<clipPath id="clip1_634_2585">
<rect width="16" height="17" fill="white" transform="translate(0 0.273682)"/>
</clipPath>
</defs>
</svg>
